<?xml version="1.0" encoding="utf-8"?>
<!-- Generator: Adobe Illustrator 26.4.1, SVG Export Plug-In . SVG Version: 6.00 Build 0)  -->
<svg version="1.1" xmlns="http://www.w3.org/2000/svg" xmlns:xlink="http://www.w3.org/1999/xlink" x="0px" y="0px"
	 viewBox="0 0 480 480" style="enable-background:new 0 0 480 480;" xml:space="preserve">
<style type="text/css">
	.st0{display:none;}
	.st1{display:inline;}
	.st2{display:inline;fill:#0AE2D7;}
	.st3{fill:#FFFFFF;}
</style>
<g id="Layer_2" class="st0">
	<rect class="st1" width="480" height="480"/>
</g>
<g id="Layer_1">
	<g id="Layer_2_00000149349323783622708480000007456794977721078161_" class="st0">
		<rect x="-119.1" y="-60.4" class="st2" width="811" height="373"/>
	</g>
	<g>
		<g>
			<g>
				<path class="st3" d="M94.1,350.8c2.7,0,7.1,2.3,13,6.9c1.7,0.7,3.3,1.5,4.9,2.4c14.3,0.5,22.4,3.3,24.4,8.6
					c0.8,3.3,1.4,13.3,1.7,29.9c0,9.2-2.2,15.1-6.5,17.7c-0.9,0.5-1.7,0.7-2.6,0.7h-0.4c-2.7,0-4.9-2.8-6.7-8.5v-2.6l0.1-1.8
					l-0.1-0.1l0.1-1.8v-1.5l0.1-18.9c0-7.1-1-11.2-3.2-12.2c-3-1.1-6.1-1-9.3,0.3c-3,1.7-4.3,6.1-3.8,13.3v1.5l0.1,1.7l-0.1,0.2
					l0.1,1.8c0,5.6,0.5,13,1.6,22.1c0,4.1-1.4,6.7-4.3,7.7c-0.9,0.3-1.6,0.5-2.3,0.5h-1.2c-3.4,0-5.8-1.9-7.2-5.7
					c-0.4-1.5-0.6-2.9-0.6-4.4l0.6-6.3l-0.1-0.2V402c0.8-5.4,1.2-12,1.2-20v-0.8c0-10.8-0.9-18.2-2.7-22.5l-0.3-3.2
					c0.3-3,1.4-4.5,3.3-4.5L94.1,350.8z M128.8,363.7c4.9-1.8,10.4-2.5,16.5-1.9c16-0.8,23.6,4.4,22.8,15.7
					c1.3,4.2,2.2,12.5,2.6,24.9c-0.9,8.3-3.5,13.7-7.8,16.4c-0.9,0.4-1.8,0.6-2.6,0.6h-0.5c-2.7,0-4.9-2.8-6.7-8.4v-2.6l0.1-1.7
					l-0.1-0.1l0.1-1.8v-1.5l0.2-6.5c0-10.6-0.1-17.4-0.2-20.3c-0.1-2.9-2.1-4.5-5.8-4.8c-3.8-0.3-10.7,0-20.7,0.8L128.8,363.7z"/>
				<path class="st3" d="M187.2,351.6c3.6,0,8.5,4.8,14.8,14.5c0.4,1.3,0.7,2.4,0.7,3.3l-3,15.3l-0.3,10v2c0,2.4,0.4,7.3,1.4,14.9
					c-0.9,5-3.3,7.4-7.4,7.4c-3.8,0-6.9-3.1-9.5-9.2l-0.2-1.4v-0.1l3.2-14.7c0.4-1.8,0.9-4.2,1.2-7.4l-0.2-1.7v-2
					c0-4.6-1.4-13.4-4.3-26.3v-0.8C183.9,352.8,185.1,351.6,187.2,351.6z"/>
				<path class="st3" d="M263.9,354c1.7,0,2.5,0.9,2.5,2.7c0,1.8-0.6,4.4-1.9,7.9c-3.9,6.2-8.2,8.9-13.1,8h-0.5
					c-0.8,0-5.5-1.1-14.1-3.2l-5-0.4c-3.4,0-5.1,0.7-5.1,2.2c-0.4,2.5-0.3,5.3,0.1,8.2v1.1l-0.1,1.8h0.1l-0.1,0.1v0.1l1.2,25.3
					c0,5.3-0.9,8.7-2.8,10.1c-1.3,0.8-2.6,1.1-3.9,1.1h-0.3c-5.3,0-7.9-5.6-7.9-16.8c0-18.2-0.1-29.9-0.2-35c2-9.9,7.2-11.9,15.5-6
					l14.2-1.8c2.6,0,8.4-1.5,17.3-4.5C261.8,354.3,263.2,354,263.9,354z"/>
				<path class="st3" d="M297.7,354.8c8.4-1.1,15.7,0.9,21.9,6c2.6,2.3,4.5,4.6,5.6,6.9c1.1,2.3,1.7,4.4,1.9,6.3
					c0.1,2,0,4.2-0.2,6.8l0.2,3.9c-1.6,6.8-9.5,10.8-23.8,12c-4.9,0.6-9.6,0.4-14.2-0.6l-1.4-0.2c0,5.7,3.4,9.4,10,11
					c7.4,0.8,11.9,0.2,13.5-1.7c1.6-1.9,4.4-3.9,8.3-5.9c5-0.2,8.1,2.1,9.2,6.7v0.5c-0.3,3.2-3,6-8,8.6c-3.2,1.5-6.6,2.5-10.2,3
					c-6.8,0.9-12.4,0.8-16.9-0.5c-5.6-1.3-9.9-4.3-13-9.2c-3.3-3.9-5.7-9.2-7-16.1l-4.3-5.3c-0.9-1.2-1.6-2.3-2-3.5
					c-0.4-2.1,1.1-3.6,4.5-4.5h0.1l1.6-0.2c0.4-2.5,1.7-6.1,3.8-10.8c3.6-5.6,8.1-9.3,13.3-11.1C293.1,355.7,295.6,355,297.7,354.8z
					 M288.2,377.2c-2.2,5.8,1.9,8.4,12.4,7.9l1,0.2h0.5c7-0.2,11.7-1.7,14.2-4.5c0.8-1.6,1.1-3.4,1-5.4c-0.2-3.4-2.7-6.1-7.6-8.2
					c-2.2-0.7-5.1-0.9-8.8-0.7c-3.6,0.2-6.9,1.9-9.7,5.1C289.6,373.6,288.6,375.5,288.2,377.2z"/>
				<path class="st3" d="M339.8,356.8c2.9,0,5.4,1.4,7.6,4.1c0.6,0,1.2,2.4,2,7.1v0.2l-0.4,8.6v3c-0.4,12.5,0.4,20,2.2,22.5
					c1.8,2.5,3.7,4,5.5,4.3l7.9-0.4c7.6-1.8,11-5.2,10.5-10.1c0-9-0.7-20.2-2.1-33.4v-1.1c0-4.4,1.4-7.1,4.3-8.2l2.9-0.7
					c4.5,0,7.4,2.3,8.7,6.8l0.6,4.5c-1,13.5-1.6,22.6-1.6,27.3v3.4c0,7.1,0.5,14,1.4,20.9v1.1c0,2-1.2,3.2-3.7,3.5
					c-2,0-4.3-0.8-7-2.5c-2.4-3.5-6.2-4.4-11.3-2.7c-5.1,1.6-10.9,2.3-17.2,1.9c-4.9,0-8.8-3-11.7-9c-1-3.9-1.7-8.5-2.2-13.8
					l-1.9-30.9c0-3.1,0.7-5,2-5.7C337.6,357,338.8,356.8,339.8,356.8z"/>
				<path class="st3" d="M109,451.1l0-16.7l-8.2,14.1h-0.7L92,434.4v16.7h-1.4v-19.5h1.2l8.7,15.1l8.7-15.1h1.2l0,19.5H109z"/>
				<path class="st3" d="M138.3,445.6H127l-2.5,5.5h-1.5l9-19.5h1.4l9,19.5h-1.5L138.3,445.6z M137.8,444.4l-5.1-11.3l-5.1,11.3
					H137.8z"/>
				<path class="st3" d="M168.4,451.1l-4.7-6.5c-0.6,0.1-1.2,0.1-1.9,0.1h-5.6v6.4h-1.4v-19.5h7c4.9,0,7.9,2.5,7.9,6.6
					c0,3.1-1.7,5.2-4.6,6.1l4.9,6.8H168.4z M161.8,443.5c4.2,0,6.4-2,6.4-5.3c0-3.4-2.2-5.3-6.4-5.3h-5.6v10.6H161.8z"/>
				<path class="st3" d="M187.4,432.9h-7v-1.3h15.5v1.3h-7v18.3h-1.4V432.9z"/>
				<path class="st3" d="M208.3,431.6h1.4v19.5h-1.4V431.6z"/>
				<path class="st3" d="M237.6,445.6h-11.3l-2.5,5.5h-1.5l9-19.5h1.4l9,19.5h-1.5L237.6,445.6z M237,444.4l-5.1-11.3l-5.1,11.3H237
					z"/>
				<path class="st3" d="M254.1,431.6h1.4v18.3h11.2v1.3h-12.7V431.6z"/>
				<path class="st3" d="M307.6,445.6h-11.3l-2.5,5.5h-1.5l9-19.5h1.4l9,19.5h-1.5L307.6,445.6z M307.1,444.4l-5.1-11.3l-5.1,11.3
					H307.1z"/>
				<path class="st3" d="M337.7,451.1l-4.7-6.5c-0.6,0.1-1.2,0.1-1.9,0.1h-5.6v6.4h-1.4v-19.5h7c4.9,0,7.9,2.5,7.9,6.6
					c0,3.1-1.7,5.2-4.6,6.1l4.9,6.8H337.7z M331.2,443.5c4.2,0,6.4-2,6.4-5.3c0-3.4-2.2-5.3-6.4-5.3h-5.6v10.6H331.2z"/>
				<path class="st3" d="M356.7,432.9h-7v-1.3h15.5v1.3h-7v18.3h-1.4V432.9z"/>
				<path class="st3" d="M375.3,448.6l0.6-1.1c1.3,1.4,3.8,2.5,6.4,2.5c3.9,0,5.6-1.7,5.6-3.8c0-5.9-12.2-2.3-12.2-9.5
					c0-2.8,2.1-5.2,6.9-5.2c2.1,0,4.4,0.7,5.9,1.8l-0.5,1.1c-1.6-1.1-3.6-1.6-5.4-1.6c-3.8,0-5.5,1.8-5.5,3.9
					c0,5.9,12.2,2.4,12.2,9.5c0,2.8-2.2,5.2-7,5.2C379.5,451.3,376.7,450.2,375.3,448.6z"/>
			</g>
			<path class="st3" d="M188.3,327h0.1c4.3,0,7.4,2.3,9.2,7l0.5,2.8c0,3.9-2.1,6.9-6.3,9c-1,0.5-2.1,0.7-3.2,0.7h-0.5
				c-4,0-7-2.2-8.8-6.5c-0.3-0.9-0.5-2-0.6-3.2c0-4.5,2.3-7.6,6.8-9.3C186.6,327.2,187.6,327,188.3,327z"/>
		</g>
		
			<image style="overflow:visible;" width="3464" height="3464" xlink:href="dragon.png"  transform="matrix(8.626092e-02 0 0 8.626092e-02 90.5961 28.7491)">
		</image>
	</g>
</g>
</svg>
