<?xml version="1.0" encoding="utf-8"?>
<!-- Generator: Adobe Illustrator 26.4.1, SVG Export Plug-In . SVG Version: 6.00 Build 0)  -->
<svg version="1.1" id="Layer_1" xmlns="http://www.w3.org/2000/svg" xmlns:xlink="http://www.w3.org/1999/xlink" x="0px" y="0px"
	 viewBox="0 0 96 96" style="enable-background:new 0 0 96 96;" xml:space="preserve">
<style type="text/css">
	.st0{fill:#FFFFFF;}
</style>
<g>
	<path class="st0" d="M48.7,49.5c25.4-8,15.2-31.1,2.1-31.1c-1.2,0-2.5,0.2-3.8,0.7C31,24.7,29,53.3,34.6,60.4
		C35.7,57,38.1,52.7,48.7,49.5L48.7,49.5z"/>
	<path class="st0" d="M18.8,50.6c-1.4-22.7,15.1-34.5,30.6-34.5c12,0,23.3,7,25.1,21.5c2.7,22-34.3,9.1-37.3,24.1
		c-1.5,7.6,1.8,12.9,6,15.2C52.9,82.1,65,75.6,68.1,65c0.6-2.1,0.9-4.1,0.9-5.6l8.5,8.7C44.2,95,20,69,18.8,50.6L18.8,50.6z
		 M48.1,1.1C22.2,1.1,1.3,22,1.3,47.9c0,25.9,21,46.8,46.8,46.8c25.9,0,46.8-21,46.8-46.8C94.9,22,74,1.1,48.1,1.1z"/>
</g>
</svg>
