<?xml version="1.0" encoding="utf-8"?>
<!-- Generator: Adobe Illustrator 26.4.1, SVG Export Plug-In . SVG Version: 6.00 Build 0)  -->
<svg version="1.1" id="Layer_1" xmlns="http://www.w3.org/2000/svg" xmlns:xlink="http://www.w3.org/1999/xlink" x="0px" y="0px"
	 viewBox="0 0 340.2 156.5" style="enable-background:new 0 0 340.2 156.5;" xml:space="preserve">
<style type="text/css">
	.st0{display:none;}
	.st1{display:inline;fill:#0AE2D7;}
	.st2{fill:#FFFFFF;}
</style>
<g id="Layer_2_00000149349323783622708480000007456794977721078161_" class="st0">
	<rect x="-189" y="-130" class="st1" width="811" height="373"/>
</g>
<g>
	<path class="st2" d="M24.2,28c2.7,0,7.1,2.3,13,6.9c1.7,0.7,3.3,1.5,4.9,2.4c14.3,0.5,22.4,3.3,24.4,8.6c0.8,3.3,1.4,13.3,1.7,29.9
		c0,9.2-2.2,15.1-6.5,17.7c-0.9,0.5-1.7,0.7-2.6,0.7h-0.4c-2.7,0-4.9-2.8-6.7-8.5v-2.6l0.1-1.8l-0.1-0.1l0.1-1.8V78l0.1-18.9
		c0-7.1-1-11.2-3.2-12.2c-3-1.1-6.1-1-9.3,0.3c-3,1.7-4.3,6.1-3.8,13.3V62l0.1,1.7l-0.1,0.2l0.1,1.8c0,5.6,0.5,13,1.6,22.1
		c0,4.1-1.4,6.7-4.3,7.7c-0.9,0.3-1.6,0.5-2.3,0.5h-1.2c-3.4,0-5.8-1.9-7.2-5.7c-0.4-1.5-0.6-2.9-0.6-4.4l0.6-6.3l-0.1-0.2v-0.1
		c0.8-5.4,1.2-12,1.2-20v-0.8c0-10.8-0.9-18.2-2.7-22.5l-0.3-3.2c0.3-3,1.4-4.5,3.3-4.5L24.2,28z M59,41c4.9-1.8,10.4-2.5,16.5-1.9
		c16-0.8,23.6,4.4,22.8,15.7c1.3,4.2,2.2,12.5,2.6,24.9c-0.9,8.3-3.5,13.7-7.8,16.4c-0.9,0.4-1.8,0.6-2.6,0.6h-0.5
		c-2.7,0-4.9-2.8-6.7-8.4v-2.6l0.1-1.7l-0.1-0.1l0.1-1.8v-1.5l0.2-6.5c0-10.6-0.1-17.4-0.2-20.3c-0.1-2.9-2.1-4.5-5.8-4.8
		c-3.8-0.3-10.7,0-20.7,0.8L59,41z"/>
	<path class="st2" d="M117.3,28.8c3.6,0,8.5,4.8,14.8,14.5c0.4,1.3,0.7,2.4,0.7,3.3l-3,15.3l-0.3,10v2c0,2.4,0.4,7.3,1.4,14.9
		c-0.9,5-3.3,7.4-7.4,7.4c-3.8,0-6.9-3.1-9.5-9.2l-0.2-1.4v-0.1l3.2-14.7c0.4-1.8,0.9-4.2,1.2-7.4l-0.2-1.7v-2
		c0-4.6-1.4-13.4-4.3-26.3v-0.8C114,30.1,115.2,28.8,117.3,28.8z"/>
	<path class="st2" d="M194,31.3c1.7,0,2.5,0.9,2.5,2.7c0,1.8-0.6,4.4-1.9,7.9c-3.9,6.2-8.2,8.9-13.1,8H181c-0.8,0-5.5-1.1-14.1-3.2
		l-5-0.4c-3.4,0-5.1,0.7-5.1,2.2c-0.4,2.5-0.3,5.3,0.1,8.2v1.1l-0.1,1.8h0.1l-0.1,0.1v0.1l1.2,25.3c0,5.3-0.9,8.7-2.8,10.1
		c-1.3,0.8-2.6,1.1-3.9,1.1h-0.3c-5.3,0-7.9-5.6-7.9-16.8c0-18.2-0.1-29.9-0.2-35c2-9.9,7.2-11.9,15.5-6l14.2-1.8
		c2.6,0,8.4-1.5,17.3-4.5C191.9,31.5,193.3,31.3,194,31.3z"/>
	<path class="st2" d="M227.8,32.1c8.4-1.1,15.7,0.9,21.9,6c2.6,2.3,4.5,4.6,5.6,6.9c1.1,2.3,1.7,4.4,1.9,6.3c0.1,2,0,4.2-0.2,6.8
		l0.2,3.9c-1.6,6.8-9.5,10.8-23.8,12c-4.9,0.6-9.6,0.4-14.2-0.6l-1.4-0.2c0,5.7,3.4,9.4,10,11c7.4,0.8,11.9,0.2,13.5-1.7
		c1.6-1.9,4.4-3.9,8.3-5.9c5-0.2,8.1,2.1,9.2,6.7V84c-0.3,3.2-3,6-8,8.6c-3.2,1.5-6.6,2.5-10.2,3c-6.8,0.9-12.4,0.8-16.9-0.5
		c-5.6-1.3-9.9-4.3-13-9.2c-3.3-3.9-5.7-9.2-7-16.1l-4.3-5.3c-0.9-1.2-1.6-2.3-2-3.5c-0.4-2.1,1.1-3.6,4.5-4.5h0.1l1.6-0.2
		c0.4-2.5,1.7-6.1,3.8-10.8c3.6-5.6,8.1-9.3,13.3-11.1C223.2,32.9,225.7,32.2,227.8,32.1z M218.3,54.4c-2.2,5.8,1.9,8.4,12.4,7.9
		l1,0.2h0.5c7-0.2,11.7-1.7,14.2-4.5c0.8-1.6,1.1-3.4,1-5.4c-0.2-3.4-2.7-6.1-7.6-8.2c-2.2-0.7-5.1-0.9-8.8-0.7
		c-3.6,0.2-6.9,1.9-9.7,5.1C219.7,50.9,218.7,52.7,218.3,54.4z"/>
	<path class="st2" d="M269.9,34c2.9,0,5.4,1.4,7.6,4.1c0.6,0,1.2,2.4,2,7.1v0.2l-0.4,8.6v3c-0.4,12.5,0.4,20,2.2,22.5
		c1.8,2.5,3.7,4,5.5,4.3l7.9-0.4c7.6-1.8,11-5.2,10.5-10.1c0-9-0.7-20.2-2.1-33.4v-1.1c0-4.4,1.4-7.1,4.3-8.2l2.9-0.7
		c4.5,0,7.4,2.3,8.7,6.8l0.6,4.5c-1,13.5-1.6,22.6-1.6,27.3v3.4c0,7.1,0.5,14,1.4,20.9v1.1c0,2-1.2,3.2-3.7,3.5c-2,0-4.3-0.8-7-2.5
		c-2.4-3.5-6.2-4.4-11.3-2.7c-5.1,1.6-10.9,2.3-17.2,1.9c-4.9,0-8.8-3-11.7-9c-1-3.9-1.7-8.5-2.2-13.8l-1.9-30.9c0-3.1,0.7-5,2-5.7
		C267.7,34.2,268.9,34,269.9,34z"/>
	<path class="st2" d="M39.1,128.3l0-16.7l-8.2,14.1h-0.7l-8.2-14.1v16.7h-1.4v-19.5h1.2l8.7,15.1l8.7-15.1h1.2l0,19.5H39.1z"/>
	<path class="st2" d="M68.4,122.9H57.1l-2.5,5.5H53l9-19.5h1.4l9,19.5h-1.5L68.4,122.9z M67.9,121.7l-5.1-11.3l-5.1,11.3H67.9z"/>
	<path class="st2" d="M98.5,128.3l-4.7-6.5c-0.6,0.1-1.2,0.1-1.9,0.1h-5.6v6.4h-1.4v-19.5h7c4.9,0,7.9,2.5,7.9,6.6
		c0,3.1-1.7,5.2-4.6,6.1l4.9,6.8H98.5z M92,120.7c4.2,0,6.4-2,6.4-5.3c0-3.4-2.2-5.3-6.4-5.3h-5.6v10.6H92z"/>
	<path class="st2" d="M117.5,110.1h-7v-1.3h15.5v1.3h-7v18.3h-1.4V110.1z"/>
	<path class="st2" d="M138.4,108.8h1.4v19.5h-1.4V108.8z"/>
	<path class="st2" d="M167.7,122.9h-11.3l-2.5,5.5h-1.5l9-19.5h1.4l9,19.5h-1.5L167.7,122.9z M167.1,121.7l-5.1-11.3l-5.1,11.3
		H167.1z"/>
	<path class="st2" d="M184.2,108.8h1.4v18.3h11.2v1.3h-12.7V108.8z"/>
	<path class="st2" d="M237.7,122.9h-11.3l-2.5,5.5h-1.5l9-19.5h1.4l9,19.5h-1.5L237.7,122.9z M237.2,121.7l-5.1-11.3l-5.1,11.3
		H237.2z"/>
	<path class="st2" d="M267.8,128.3l-4.7-6.5c-0.6,0.1-1.2,0.1-1.9,0.1h-5.6v6.4h-1.4v-19.5h7c4.9,0,7.9,2.5,7.9,6.6
		c0,3.1-1.7,5.2-4.6,6.1l4.9,6.8H267.8z M261.3,120.7c4.2,0,6.4-2,6.4-5.3c0-3.4-2.2-5.3-6.4-5.3h-5.6v10.6H261.3z"/>
	<path class="st2" d="M286.8,110.1h-7v-1.3h15.5v1.3h-7v18.3h-1.4V110.1z"/>
	<path class="st2" d="M305.4,125.8l0.6-1.1c1.3,1.4,3.8,2.5,6.4,2.5c3.9,0,5.6-1.7,5.6-3.8c0-5.9-12.2-2.3-12.2-9.5
		c0-2.8,2.1-5.2,6.9-5.2c2.1,0,4.4,0.7,5.9,1.8l-0.5,1.1c-1.6-1.1-3.6-1.6-5.4-1.6c-3.8,0-5.5,1.8-5.5,3.9c0,5.9,12.2,2.4,12.2,9.5
		c0,2.8-2.2,5.2-7,5.2C309.6,128.5,306.8,127.4,305.4,125.8z"/>
</g>
<path class="st2" d="M118.5,4.3h0.1c4.3,0,7.4,2.3,9.2,7l0.5,2.8c0,3.9-2.1,6.9-6.3,9c-1,0.5-2.1,0.7-3.2,0.7h-0.5
	c-4,0-7-2.2-8.8-6.5c-0.3-0.9-0.5-2-0.6-3.2c0-4.5,2.3-7.6,6.8-9.3C116.7,4.4,117.7,4.3,118.5,4.3z"/>
</svg>
