<?xml version="1.0" encoding="utf-8"?>
<!-- Generator: Adobe Illustrator 26.4.1, SVG Export Plug-In . SVG Version: 6.00 Build 0)  -->
<svg version="1.1" xmlns="http://www.w3.org/2000/svg" xmlns:xlink="http://www.w3.org/1999/xlink" x="0px" y="0px"
	 viewBox="0 0 500 156.5" style="enable-background:new 0 0 500 156.5;" xml:space="preserve">
<style type="text/css">
	.st0{display:none;}
	.st1{display:inline;fill:#0AE2D7;}
	.st2{fill:#FFFFFF;}
</style>
<g id="Layer_2" class="st0">
	<rect x="-189" y="-130" class="st1" width="811" height="373"/>
</g>
<g id="Layer_1">
	<g>
		<path id="Path_24" class="st2" d="M125.6,40.7h-8.6c-0.3,0-0.5,0.2-0.5,0.6c0,0.1,0,0.2,0.1,0.3l4.3,7.2c0.2,0.2,0.5,0.3,0.7,0.1
			c0,0,0.1-0.1,0.1-0.1l4.3-7.2c0.2-0.2,0.1-0.6-0.1-0.8C125.8,40.7,125.7,40.7,125.6,40.7L125.6,40.7L125.6,40.7z"/>
		<path class="st2" d="M35.9,99.5c2.3-2.3,4.5-6.2,4.5-10.3V35.6c0-4-2.1-8-4.5-10.3h47.6l-3.2,10.8c-6.2-9.5-15.8-8.4-26.8-8.4
			v27.4h18v2.8h-18V97c11,0,20.6,1.2,26.8-8.5l3.2,10.9L35.9,99.5L35.9,99.5z"/>
		<path class="st2" d="M116.1,102.7l10.5-6.7V52.9h-10.5V102.7z"/>
		<path class="st2" d="M95.5,102.7l10.5-6.4V21.9H95.5C95.5,21.9,95.5,102.7,95.5,102.7z"/>
		<path class="st2" d="M139.7,63.9c0-6.1,5.9-10.8,17.7-10.8c9.6,0,15,2.1,19.3,6.9l-4.8,6.5c0-9.1-7.1-12.9-13.6-12.9
			c-5.7,0-10.8,2-10.8,7.8c0,13.6,33.7,5.3,33.7,24.9c0,10-12,13.6-23.7,13.6c-13.2,0-19.4-4.7-21.9-8.1l6.6-7.6
			c0,4.6,2.9,15.3,15.4,15.3c11.7,0,13.9-7,13.9-12.5C171.3,72.2,139.7,81,139.7,63.9L139.7,63.9z"/>
		<path class="st2" d="M191.2,63.9c0-6.1,5.9-10.8,17.7-10.8c9.6,0,15,2.1,19.3,6.9l-4.8,6.5c0-9.1-7.1-12.9-13.6-12.9
			c-5.7,0-10.8,2-10.8,7.8c0,13.6,33.7,5.3,33.7,24.9c0,10-12,13.6-23.7,13.6c-13.2,0-19.4-4.7-21.9-8.1l6.6-7.6
			c0,4.6,2.9,15.3,15.4,15.3c11.7,0,13.9-7,13.9-12.5C222.8,72.2,191.2,81,191.2,63.9L191.2,63.9z"/>
		<path class="st2" d="M298.3,35h17.3c-2.7,10.6-1.7,10.1,17.2,55.9c2.8-6.7,5.2-12.4,7.2-17.3C332.8,56.1,324.6,36,324.2,35h17.3
			c-1.9,7.3-1.9,9.4,4.3,24.8c0.5,0.9,0.8,2,1.3,3.1c2.8,6.8,6.6,15.8,11.7,28.1c19.3-46.9,20.1-44.7,16-55.9h9.6
			c-1.1,2.7-24,58.7-24.3,59.4c1.4,3.4,1.5,3.5,1.5,3.6c0,0,0.1,0.1,0.8,1.8h-11.7c-0.2-0.6-4.5-10.7-9.5-23
			c-3.9,9.7-7,17.2-7.1,17.5c2.6,6.2,0.6,1.5,2.3,5.5H325C324.4,98.5,298.9,36.6,298.3,35L298.3,35z"/>
		<path class="st2" d="M434,102.7l10.5-6.4V21.9H434V102.7z"/>
		<path class="st2" d="M453.6,102.7l10.5-6.4V21.9h-10.5V102.7z"/>
		<path class="st2" d="M417.8,97.8c-2.7,0.9-3.8-0.4-4.1-2.7c-1-6.3,1.2-19.1,1.2-25.9c0.1-12.8-7.9-17-16-17
			c-3.4,0-6.7,0.7-9.5,1.9c-6.2,2.4-9.3,8.7-9.3,12.4h6.8v0c-0.4-8.1,4.6-12.2,9.1-12.2c2.7,0,5.2,1.3,6.6,4
			c5.5,10.4-6,14.3-16.2,17.3c-11.5,3.3-12.6,19.9-1,22.9c1.8,0.5,3.6,0.7,5.3,0.7c5,0,9.5-2.1,13.7-5.4c1.4,3.5,4.5,5.2,7.5,5.3
			c0.2,0,0.4,0,0.6,0.1l0,0c10.5,0.7,14.4-6.7,16.1-9.1l-6.9-7.4C421.9,94.9,419,97.4,417.8,97.8L417.8,97.8z M403.9,91.2
			c-0.9,2.6-4.6,4.3-8.3,4.3c-4,0-8.1-2.1-8.5-7.4c-0.9-11.7,11.4-11.5,16.8-19.7C403.9,69,403.8,90.6,403.9,91.2z"/>
		<path class="st2" d="M280.4,97.5c-2.7,0.9-3.8-0.4-4.1-2.7c-1-6.3,1.2-19.1,1.2-25.9c0.1-12.8-7.9-17-16-17
			c-3.4,0-6.7,0.7-9.5,1.9c-6.2,2.4-9.3,8.7-9.3,12.4h6.8v0c-0.4-8.1,4.6-12.2,9.1-12.2c2.7,0,5.2,1.3,6.6,4
			c5.5,10.4-6,14.3-16.2,17.3c-11.5,3.3-12.6,19.9-1,22.9c1.8,0.5,3.6,0.7,5.3,0.7c5,0,9.5-2.1,13.7-5.4c1.4,3.5,4.5,5.2,7.5,5.3
			c0.2,0,0.4,0,0.6,0.1l0,0c10.5,0.7,14.4-6.7,16.1-9.1l-6.9-7.4C284.4,94.6,281.5,97.1,280.4,97.5L280.4,97.5z M266.4,90.9
			c-0.9,2.6-4.6,4.3-8.3,4.3c-4,0-8.1-2.1-8.5-7.4c-0.9-11.7,11.4-11.5,16.8-19.7C266.4,68.7,266.4,90.4,266.4,90.9z"/>
	</g>
</g>
</svg>
