<?xml version="1.0" encoding="utf-8"?>
<!-- Generator: Adobe Illustrator 26.4.1, SVG Export Plug-In . SVG Version: 6.00 Build 0)  -->
<svg version="1.1" id="Layer_1" xmlns="http://www.w3.org/2000/svg" xmlns:xlink="http://www.w3.org/1999/xlink" x="0px" y="0px"
	 viewBox="0 0 143.1 71.5" style="enable-background:new 0 0 143.1 71.5;" xml:space="preserve">
<style type="text/css">
	.st0{fill:#FFFFFF;}
</style>
<path class="st0" d="M40,15.4c0.1,0.1,0.2,0.1,0.3,0c0,0,0,0,0,0l2.1-3.5c0.1-0.1,0-0.3-0.1-0.4c0,0-0.1,0-0.1,0h-4.2
	c-0.1,0-0.2,0.1-0.2,0.3c0,0.1,0,0.1,0,0.2L40,15.4L40,15.4z"/>
<polygon class="st0" points="37.6,41.6 42.7,38.3 42.7,17.4 37.6,17.4 "/>
<polygon class="st0" points="27.6,41.6 32.7,38.5 32.7,2.4 27.6,2.4 "/>
<path class="st0" d="M52.9,21.5c0-2.8,2.5-3.8,5.2-3.8c3.2,0,6.6,1.9,6.6,6.3l2.3-3.1c-2.1-2.3-4.7-3.3-9.4-3.3
	c-5.7,0-8.6,2.3-8.6,5.2c0,8.3,15.4,4,15.4,11.1c0,2.7-1,6.1-6.7,6.1c-6,0-7.5-5.2-7.5-7.4l-3.2,3.7c1.2,1.7,4.2,3.9,10.6,3.9
	c5.6,0,11.5-1.7,11.5-6.6C69.2,24,52.9,28,52.9,21.5L52.9,21.5z"/>
<path class="st0" d="M77.8,21.5c0-2.8,2.5-3.8,5.2-3.8c3.2,0,6.6,1.9,6.6,6.3l2.3-3.1c-2.1-2.3-4.7-3.3-9.4-3.3
	c-5.7,0-8.6,2.3-8.6,5.2c0,8.3,15.4,4,15.4,11.1c0,2.7-1,6.1-6.7,6.1c-6,0-7.5-5.2-7.5-7.4l-3.2,3.7c1.2,1.7,4.2,3.9,10.6,3.9
	c5.6,0,11.5-1.7,11.5-6.6C94.2,24,77.9,28,77.8,21.5L77.8,21.5z"/>
<path class="st0" d="M109.9,36.5c-0.4,1.3-2.2,2.1-4,2.1c-1.9,0-3.9-1-4.1-3.6c-0.4-5.7,5.5-5.6,8.1-9.6
	C109.9,25.8,109.8,36.3,109.9,36.5z M116.6,39.7c-1.3,0.4-1.8-0.2-2-1.3c-0.5-3,0.6-9.3,0.6-12.6c0-6.2-3.9-8.3-7.7-8.3
	c-1.6,0-3.2,0.3-4.6,0.9c-3,1.2-4.5,4.2-4.5,6h3.3l0,0c-0.2-3.9,2.2-5.9,4.4-5.9c1.3,0,2.5,0.6,3.2,1.9c2.7,5.1-2.9,6.9-7.9,8.4
	c-5.6,1.6-6.1,9.6-0.5,11.1c0.9,0.3,1.7,0.3,2.6,0.3c2.4,0,4.6-1,6.7-2.6c0.7,1.7,2.2,2.5,3.6,2.6c0.1,0,0.2,0,0.3,0
	c5.1,0.3,7-3.2,7.8-4.4l-3.4-3.6C118.6,38.3,117.2,39.6,116.6,39.7L116.6,39.7z"/>
<path class="st0" d="M12.1,18.5c0.5-0.2,1-0.3,1.4-0.3c4.9,0,8.7,8.6-0.8,11.6c-3.9,1.2-4.9,2.8-5.3,4.1
	C5.4,31.3,6.1,20.6,12.1,18.5L12.1,18.5z M20,35.7c-1.1,4-5.7,6.4-9.3,4.4c-1.6-0.8-2.8-2.8-2.2-5.7c1.1-5.6,15-0.8,13.9-9
	c-0.7-5.4-4.9-8-9.4-8c-5.8,0-12,4.4-11.4,12.9c0.4,6.9,9.5,16.6,21.9,6.5l-3.2-3.2C20.3,34.1,20.2,34.9,20,35.7L20,35.7z"/>
<path class="st0" d="M94.9,45.2c1.7,4.7,1.5,4.4-4.8,19.7c-2.6-6.3-4.2-9.9-5-12.5c-0.3-0.9-0.6-1.7-0.7-2.4c-0.2-1-0.3-1.8-0.1-2.6
	c0.1-0.7,0.3-1.4,0.5-2.2h-8.1c0.1,0.3,2.5,6,5.1,12.4c-0.8,1.9-1.8,4.3-3,7.2c-6.3-15-6.5-15.3-5.4-19.7h-8.1
	c0.2,0.5,5.7,13.8,9.3,22.6H80c-0.2-0.5-0.4-0.9-0.6-1.4c0.9-2.2,1.9-4.8,3-7.3c1.2,3,2.5,6.1,3.6,8.7h5.4c-0.2-0.5-0.4-0.9-0.6-1.4
	c3.2-7.8,8.3-20.3,8.7-21.2H94.9L94.9,45.2z"/>
<polygon class="st0" points="126.9,69.2 132,66.1 132,30 126.9,30 "/>
<polygon class="st0" points="136.4,30 136.4,69.2 141.5,66.1 141.5,30 "/>
<path class="st0" d="M111.8,63.9c-0.4,1.3-2.2,2.1-4,2.1c-1.9,0-3.9-1-4.1-3.6c-0.4-5.7,5.5-5.6,8.1-9.6
	C111.8,53.1,111.8,63.6,111.8,63.9L111.8,63.9z M118.6,67.1c-1.3,0.4-1.8-0.2-2-1.3c-0.5-3,0.6-9.3,0.6-12.6c0-6.2-3.9-8.3-7.7-8.3
	c-1.6,0-3.2,0.3-4.6,0.9c-3,1.2-4.5,4.2-4.5,6h3.3l0,0c-0.2-3.9,2.2-5.9,4.4-5.9c1.3,0,2.5,0.6,3.2,1.9c2.7,5.1-2.9,6.9-7.9,8.4
	c-5.6,1.6-6.1,9.6-0.5,11.1c0.9,0.3,1.7,0.3,2.6,0.3c2.4,0,4.6-1,6.7-2.6c0.7,1.7,2.2,2.5,3.6,2.6c0.1,0,0.2,0,0.3,0
	c5.1,0.3,7-3.2,7.8-4.4l-3.4-3.6C120.6,65.7,119.1,66.9,118.6,67.1L118.6,67.1z"/>
</svg>
