<?xml version="1.0" encoding="utf-8"?>
<!-- Generator: Adobe Illustrator 26.4.1, SVG Export Plug-In . SVG Version: 6.00 Build 0)  -->
<svg version="1.1" id="Layer_1" xmlns="http://www.w3.org/2000/svg" xmlns:xlink="http://www.w3.org/1999/xlink" x="0px" y="0px"
	 viewBox="0 0 480 50.9" style="enable-background:new 0 0 480 50.9;" xml:space="preserve">
<style type="text/css">
	.st0{display:none;}
	.st1{display:inline;fill:#EA4E7B;}
	.st2{display:inline;fill:#FFFFFF;}
	.st3{fill:#FFFFFF;}
	.st4{fill:#09ABA9;}
</style>
<g id="Layer_2_00000127045712786658458150000001683240031013975738_" class="st0">
	<rect x="-9.5" y="5.1" class="st1" width="502.3" height="56"/>
</g>
<g id="Layer_1_00000155830980601640168370000014166769456118363278_">
	<g id="Layer_1_1_" class="st0">
		<path class="st2" d="M953.4-62V53.9H-473.4V-62C-339.9-4.7-70.6,4.9,240,4.9S819.9-4.7,953.4-62z"/>
	</g>
	<path class="st3" d="M953.4,9.3v44.6H-473.4V9.3c0,0,556.5,12.8,690.2,14.6c0,0.6,0,1.2,0,1.5c0,12.8,10.4,23.2,23.2,23.2
		s23.2-10.4,23.2-23.2c0-0.6,0-1.2,0-1.5C396.9,22.1,953.4,9.3,953.4,9.3z"/>
	<g>
		<path class="st4" d="M240.3,26.3c11.3-3.6,6.8-14,0.9-14c-0.6,0-1.2,0-1.8,0.3c-7.1,2.4-8,15.5-5.6,18.4
			C234.4,29.5,235.5,27.7,240.3,26.3L240.3,26.3z"/>
		<path class="st4" d="M226.9,26.9c-0.6-10.1,6.8-15.5,13.7-15.5c5.4,0,10.4,3.3,11.3,9.5c1.2,9.8-15.5,4.2-16.6,10.7
			c-0.6,3.6,0.9,5.9,2.7,6.8c4.5,2.4,9.8-0.6,11.3-5.4c0.3-0.9,0.3-1.8,0.3-2.4l3.9,3.9C238.2,46.8,227.5,34.9,226.9,26.9
			L226.9,26.9z M240,4.6c-11.6,0-21.1,9.5-21.1,21.1s9.5,21.1,21.1,21.1c11.6,0,21.1-9.5,21.1-21.1S251.6,4.6,240,4.6z"/>
	</g>
</g>
</svg>
