<?xml version="1.0" encoding="utf-8"?>
<!-- Generator: Adobe Illustrator 26.4.1, SVG Export Plug-In . SVG Version: 6.00 Build 0)  -->
<svg version="1.1" id="Layer_1" xmlns="http://www.w3.org/2000/svg" xmlns:xlink="http://www.w3.org/1999/xlink" x="0px" y="0px"
	 viewBox="0 0 480 39" style="enable-background:new 0 0 480 39;" xml:space="preserve">
<style type="text/css">
	.st0{display:none;}
	.st1{display:inline;fill:#EA4E7B;}
	.st2{display:inline;fill:#FFFFFF;}
	.st3{fill:#FFFFFF;}
</style>
<g id="Layer_2_00000121246262969640213090000002340663998757474977_" class="st0">
	<rect x="-9.5" y="-6.8" class="st1" width="502.3" height="56"/>
</g>
<g id="Layer_1_1_" class="st0">
	<path class="st2" d="M657-28.8V39h-834v-67.8C-99,4.8,58.4,10.3,240,10.3S579,4.8,657-28.8z"/>
</g>
<path class="st3" d="M657,12.9V39h-834V12.9c0,0,325.3,7.5,403.4,8.5c0,0.3,0,0.7,0,0.9c0,7.5,6.1,13.6,13.6,13.6
	s13.6-6.1,13.6-13.6c0-0.3,0-0.7,0-0.9C331.7,20.4,657,12.9,657,12.9z"/>
<path d="M240,9.4c-6.8,0-12.3,5.6-12.3,12.3c0,6.7,5.6,12.3,12.3,12.3c6.8,0,12.3-5.6,12.3-12.3C252.3,15,246.8,9.4,240,9.4z
	 M245.4,27.3c-0.2,0.1-0.3,0.1-0.4,0.1h-0.1c-0.4,0-0.8-0.5-1.1-1.4v-0.4l0-0.3l0,0l0-0.3v-0.2l0-1.1c0-1.8,0-2.9,0-3.4
	c0-0.5-0.3-0.8-1-0.8c-0.4,0-1,0-1.8,0c0.1,0.8,0.2,2.3,0.2,4.5c0,1.5-0.4,2.5-1.1,3c-0.1,0.1-0.3,0.1-0.4,0.1h-0.1
	c-0.5,0-0.8-0.5-1.1-1.4v-0.4l0-0.3l0,0l0-0.3v-0.2l0-3.2c0-1.2-0.2-1.9-0.5-2c-0.5-0.2-1-0.2-1.5,0c-0.5,0.3-0.7,1-0.6,2.2v0.2
	l0,0.3l0,0l0,0.3c0,0.9,0.1,2.2,0.3,3.7c0,0.7-0.2,1.1-0.7,1.3c-0.1,0-0.3,0.1-0.4,0.1h-0.2c-0.6,0-1-0.3-1.2-1
	c-0.1-0.2-0.1-0.5-0.1-0.7l0.1-1.1l0,0v0c0.1-0.9,0.2-2,0.2-3.3V21c0-1.8-0.2-3-0.5-3.8l-0.1-0.5c0-0.5,0.2-0.8,0.5-0.8l0,0
	c0.5,0,1.2,0.4,2.2,1.2c0.3,0.1,0.5,0.2,0.8,0.4c1.4,0,2.4,0.2,3.1,0.5c0.8-0.2,1.6-0.3,2.5-0.2c2.7-0.1,3.9,0.7,3.8,2.6
	c0.2,0.7,0.4,2.1,0.4,4.2C246.5,26,246.1,26.9,245.4,27.3z"/>
</svg>
