<?xml version="1.0" encoding="utf-8"?>
<!-- Generator: Adobe Illustrator 26.4.1, SVG Export Plug-In . SVG Version: 6.00 Build 0)  -->
<svg version="1.1" id="Layer_1" xmlns="http://www.w3.org/2000/svg" xmlns:xlink="http://www.w3.org/1999/xlink" x="0px" y="0px"
	 viewBox="0 0 480 50.9" style="enable-background:new 0 0 480 50.9;" xml:space="preserve">
<style type="text/css">
	.st0{display:none;}
	.st1{display:inline;fill:#EA4E7B;}
	.st2{display:inline;fill:#FFFFFF;}
	.st3{fill:#FFFFFF;}
</style>
<g id="Layer_2_00000127045712786658458150000001683240031013975738_" class="st0">
	<rect x="-9.5" y="5.1" class="st1" width="502.3" height="56"/>
</g>
<g id="Layer_1_1_" class="st0">
	<path class="st2" d="M953.4-62V53.9H-473.4V-62C-339.9-4.7-70.6,4.9,240,4.9S819.9-4.7,953.4-62z"/>
</g>
<path class="st3" d="M953.4,9.3v44.6H-473.4V9.3c0,0,556.5,12.8,690.2,14.6c0,0.6,0,1.2,0,1.5c0,12.8,10.4,23.2,23.2,23.2
	s23.2-10.4,23.2-23.2c0-0.6,0-1.2,0-1.5C396.9,22.1,953.4,9.3,953.4,9.3z"/>
<path d="M240,5.4c-11.6,0-21.1,9.6-21.1,21.1c0,11.5,9.6,21.1,21.1,21.1c11.6,0,21.1-9.6,21.1-21.1C261.1,15,251.6,5.4,240,5.4z
	 M249.2,36.1c-0.3,0.1-0.5,0.2-0.8,0.2h-0.1c-0.8,0-1.4-0.8-1.9-2.4v-0.8l0-0.5l0,0l0-0.5v-0.4l0.1-1.9c0-3,0-5-0.1-5.8
	c0-0.8-0.6-1.3-1.7-1.4c-0.7-0.1-1.7-0.1-3,0c0.2,1.4,0.3,4,0.3,7.7c0,2.6-0.6,4.3-1.8,5.1c-0.2,0.1-0.5,0.2-0.8,0.2h-0.1
	c-0.8,0-1.4-0.8-1.9-2.4v-0.7l0-0.5l0,0l0-0.5v-0.4l0-5.4c0-2-0.3-3.2-0.9-3.5c-0.8-0.3-1.7-0.3-2.7,0.1c-0.9,0.5-1.2,1.7-1.1,3.8
	v0.4l0,0.5l0,0.1l0,0.5c0,1.6,0.2,3.7,0.4,6.3c0,1.2-0.4,1.9-1.2,2.2c-0.2,0.1-0.5,0.1-0.7,0.1h-0.4c-1,0-1.7-0.5-2-1.6
	c-0.1-0.4-0.2-0.8-0.2-1.3l0.2-1.8l0-0.1v-0.1c0.2-1.5,0.3-3.4,0.3-5.7v-0.2c0-3.1-0.3-5.2-0.8-6.4l-0.1-0.9
	c0.1-0.9,0.4-1.3,0.9-1.3l0.1-0.1c0.8,0,2,0.7,3.7,2c0.5,0.2,0.9,0.4,1.4,0.7c2.3,0.1,4.1,0.4,5.3,0.9c1.3-0.4,2.7-0.5,4.3-0.4
	c4.6-0.2,6.7,1.3,6.5,4.5c0.4,1.2,0.6,3.6,0.8,7.1C251.2,33.8,250.4,35.3,249.2,36.1z"/>
</svg>
