<?xml version="1.0" encoding="utf-8"?>
<!-- Generator: Adobe Illustrator 26.4.1, SVG Export Plug-In . SVG Version: 6.00 Build 0)  -->
<svg version="1.1" id="Layer_1" xmlns="http://www.w3.org/2000/svg" xmlns:xlink="http://www.w3.org/1999/xlink" x="0px" y="0px"
	 viewBox="0 0 480 39" style="enable-background:new 0 0 480 39;" xml:space="preserve">
<style type="text/css">
	.st0{display:none;}
	.st1{display:inline;fill:#EA4E7B;}
	.st2{display:inline;fill:#FFFFFF;}
	.st3{fill:#FFFFFF;}
	.st4{fill:#09ABA9;}
</style>
<g id="Layer_2_00000121246262969640213090000002340663998757474977_" class="st0">
	<rect x="-9.5" y="-6.8" class="st1" width="502.3" height="56"/>
</g>
<g id="Layer_1_00000137823386789426516730000000324703545130318254_">
	<g id="Layer_1_1_" class="st0">
		<path class="st2" d="M657-28.8V39h-834v-67.8C-99,4.8,58.4,10.3,240,10.3S579,4.8,657-28.8z"/>
	</g>
	<path class="st3" d="M657,12.9V39h-834V12.9c0,0,325.3,7.5,403.4,8.5c0,0.3,0,0.7,0,0.9c0,7.5,6.1,13.6,13.6,13.6
		s13.6-6.1,13.6-13.6c0-0.3,0-0.7,0-0.9C331.7,20.4,657,12.9,657,12.9z"/>
	<g>
		<path class="st4" d="M240.2,22.8c6.6-2.1,4-8.2,0.5-8.2c-0.3,0-0.7,0-1,0.2c-4.2,1.4-4.7,9-3.3,10.8
			C236.7,24.8,237.4,23.7,240.2,22.8L240.2,22.8z"/>
		<path class="st4" d="M232.4,23.2c-0.3-5.9,4-9,8-9c3.1,0,6.1,1.9,6.6,5.6c0.7,5.7-9,2.4-9.7,6.3c-0.3,2.1,0.5,3.5,1.6,4
			c2.6,1.4,5.7-0.3,6.6-3.1c0.2-0.5,0.2-1,0.2-1.4l2.3,2.3C239,34.8,232.7,27.9,232.4,23.2L232.4,23.2z M240,10.2
			c-6.8,0-12.3,5.6-12.3,12.3s5.6,12.3,12.3,12.3c6.8,0,12.3-5.6,12.3-12.3S246.8,10.2,240,10.2z"/>
	</g>
</g>
</svg>
