<?xml version="1.0" encoding="utf-8"?>
<!-- Generator: Adobe Illustrator 22.0.1, SVG Export Plug-In . SVG Version: 6.00 Build 0)  -->
<svg version="1.1" id="Layer_1" xmlns="http://www.w3.org/2000/svg" xmlns:xlink="http://www.w3.org/1999/xlink" x="0px" y="0px"
	 viewBox="0 0 96 96" style="enable-background:new 0 0 96 96;" xml:space="preserve">
<style type="text/css">
	.st0{fill:#408F42;}
</style>
<path class="st0" d="M79.8,88.1c-0.6-2.6-0.9-5.3-1.3-8c-1.8-11.7-3.5-23.4-5.4-35c-0.7-4.5-3.8-7-8.5-7c-3.5,0-7-0.1-10.5,0
	c-1.8,0.1-2.3-0.4-2.3-2.2c0.1-8.1,0-16.2,0-24.4c0-5.7,0-5.6-5.7-5.7c-2,0-2.3,0.6-2.3,2.4c0.1,9.1,0,18.1,0.1,27.2
	c0,2-0.3,2.8-2.6,2.7C38.2,37.9,35,38,31.7,38c-5.4,0-8.3,2.7-9.1,8c-2.1,14-4.3,28.1-6.5,42.1c-0.3,1.8,0.2,2.1,1.8,2.1
	c10-0.1,20.1,0,30.1,0s20.1,0,30.1,0C79.9,90.2,80.2,89.8,79.8,88.1z M29.8,52.2c0.6-6.2,0.5-6.2,6.6-6.2c8.9,0,17.8,0,26.8,0
	c1.4,0,2,0.4,2.3,1.8c1.2,6.1,1.3,6.1-5,6.1H48.1c-5.6,0-11.1,0-16.7,0C30,54,29.7,53.6,29.8,52.2z M68.8,82.1
	c-2.5-0.1-5.1-0.1-7.6,0c-1.4,0.1-1.9-0.5-2.2-1.8c-0.8-3.1-1.7-6.1-2.6-9.1c-0.2,0-0.3,0-0.5,0c-0.4,2.9-0.8,5.9-1.2,8.9
	c-0.2,1.4-0.5,2.1-2.2,2c-2.9-0.2-5.7-0.1-8.6,0c-1.3,0-1.8-0.4-2.1-1.6c-0.4-1.9-1-3.8-1.6-5.9c-0.9,2.1-0.8,4.1-1.1,6.1
	c-0.2,1.2-0.6,1.4-1.6,1.4c-3.6-0.1-7.2-0.1-10.7,0c-1,0-1.4-0.2-1.2-1.3c0.9-5.8,1.8-11.6,2.6-17.4c0.2-1.1,0.7-1.4,1.8-1.4
	c12.1,0,24.2,0.1,36.3,0c1.3,0,1.6,0.6,1.8,1.6c0.9,5.6,1.6,11.1,2.6,16.7C70.7,81.9,70.2,82.2,68.8,82.1z"/>
</svg>
