<?xml version="1.0" encoding="utf-8"?>
<!-- Generator: Adobe Illustrator 22.0.1, SVG Export Plug-In . SVG Version: 6.00 Build 0)  -->
<svg version="1.1" id="Layer_1" xmlns="http://www.w3.org/2000/svg" xmlns:xlink="http://www.w3.org/1999/xlink" x="0px" y="0px"
	 viewBox="0 0 96 96" style="enable-background:new 0 0 96 96;" xml:space="preserve">
<style type="text/css">
	.st0{fill:#47B71D;}
	.st1{fill:#408F42;}
</style>
<g id="Layer_1_1_">
	<g>
		<path class="st0" d="M80.7,94.9H15.5C5.7,94.9,1,90.2,1,80.6V15.1c0-9.2,4.8-14,14-14h65.8c9.2,0,14.2,5,14.2,14v65.5
			C95,90.2,90.3,94.9,80.7,94.9z M15,5.1c-6.9,0-10,3.1-10,10v65.5C5,88,7.9,90.9,15.5,90.9h65.2C88.1,90.9,91,88,91,80.6V15.1
			c0-6.9-3.1-10-10.2-10C80.8,5.1,15,5.1,15,5.1z"/>
	</g>
</g>
<g id="Layer_2_1_">
	<path class="st1" d="M40,42.8c-1-2.6-2.5-4.2-5.4-4.3c-3.1-0.1-6,0.2-7.5,3.4c-0.7,1.4-1.1,3-1.2,4.6c-0.7,6.6-0.8,13.2,0.2,19.8
		c0.7,4.3,2.9,6.1,7,6.2s5.9-1.3,6.7-5.8c0.4-2.2,1.2-3,3.4-2.8c1.5,0.2,3,0.2,4.4,0c2.7-0.3,2.9,0.9,2.4,3.1
		c-1.8,8.9-7.3,13.2-16.9,13.2c-8.9,0-15-5-16.7-13.6c-0.8-3.7-0.6-7.5-0.6-11.2c0-3.8-0.1-7.7,0.7-11.5
		c2.6-12.5,18.3-18.2,28.3-10.1c3.8,3,5.2,7.3,5.6,12c0.1,1.3-0.5,1.8-1.7,1.7c-0.8,0-1.6,0-2.4,0c-1.7,0-3.5,0.3-5-0.1
		C39.4,46.5,40.6,44.2,40,42.8z"/>
	<path class="st1" d="M82,22.5c-1.2-2.7-3.4-3.3-7.7-1.9c0.7-2.1,1.9-3.7,3.9-3.9c1.9-0.2,2.1-1.2,1.8-2.6c-0.4-1.9-1.8-0.9-2.8-0.7
		c-3.5,0.8-5.7,3.1-6.3,6.6c-0.7,4-1.1,8.2,2,11.5c1.7,1.8,4,2.1,6.3,0.9C82.2,30.8,83.6,26,82,22.5z M76.8,30
		c-1.8,0-2.1-1.8-2.1-3.4s-0.2-3.6,2-3.6c1.9,0,1.7,2.1,2.1,3.5C78.5,27.9,78.7,29.9,76.8,30z"/>
</g>
</svg>
