<?xml version="1.0" encoding="utf-8"?>
<!-- Generator: Adobe Illustrator 22.0.1, SVG Export Plug-In . SVG Version: 6.00 Build 0)  -->
<svg version="1.1" id="Layer_1" xmlns="http://www.w3.org/2000/svg" xmlns:xlink="http://www.w3.org/1999/xlink" x="0px" y="0px"
	 viewBox="0 0 96 96" style="enable-background:new 0 0 96 96;" xml:space="preserve">
<style type="text/css">
	.st0{fill:#408F42;}
</style>
<g>
	<path class="st0" d="M6.8,15.6v46.9h82.4V15.6H6.8z M83.4,50.6c-4.7,0.8-5.4,1.5-5.8,6.1h-59c-0.7-4.8-1.5-5.6-5.9-6V27.5
		c4.9-1,5.5-1.6,5.8-6.1h59.1c0.3,4.3,1.5,5.4,5.8,6V50.6z"/>
	<path class="st0" d="M6.8,71.4c0-2,0-3.7,0-5.6c3.4,0,6.8-0.1,10.2,0c9.4,0.5,18.9,0.9,28.3,1.8c9,0.9,17.9,2.4,26.8,3.8
		c1.6,0.2,2.6,0.3,3.8-1.2c0.9-1.1,2.8-1.4,4.6-2.3c0-0.4,0.1-1.2,0.3-2.2c1.7,0,3.4,0,5.4,0c0,4.8,0,9.7,0,14.7
		C60.2,73.5,33.7,71.8,6.8,71.4z"/>
	<path class="st0" d="M47.9,27.2c-6.7,0-12,5.5-11.6,12.6c0.3,5.4,4.9,11,12.1,11c6.6,0,11-6.4,11.4-11.2
		C59.8,32.4,54.8,27.2,47.9,27.2z M48,44.9c-3.5,0-5.9-2.3-5.9-5.7c-0.1-3.5,2.4-5.9,6-5.9c3.5,0,5.8,2.3,5.9,5.7
		C54.1,42.4,51.6,44.9,48,44.9z"/>
	<path class="st0" d="M31.8,39c0.1,2.4-2,4.4-4.5,4.4c-2.4,0-4.3-1.8-4.4-4.2c-0.1-2.5,1.8-4.5,4.3-4.6C29.6,34.6,31.7,36.6,31.8,39
		z"/>
	<path class="st0" d="M73.2,39.2c-0.1,2.4-2.1,4.3-4.6,4.2c-2.3,0-4.3-2-4.3-4.4s2.1-4.4,4.5-4.4C71.2,34.7,73.3,36.8,73.2,39.2z"/>
</g>
</svg>
