<?xml version="1.0" encoding="utf-8"?>
<!-- Generator: Adobe Illustrator 22.0.1, SVG Export Plug-In . SVG Version: 6.00 Build 0)  -->
<svg version="1.1" id="Layer_1" xmlns="http://www.w3.org/2000/svg" xmlns:xlink="http://www.w3.org/1999/xlink" x="0px" y="0px"
	 viewBox="0 0 96 96" style="enable-background:new 0 0 96 96;" xml:space="preserve">
<style type="text/css">
	.st0{fill:#408F42;}
</style>
<g>
	<path class="st0" d="M77.7,50.8c0,10.8,0,21.5,0,32.3c0,3.3-1.1,4.6-4.5,4.6c-17,0-33.9,0-50.9,0c-2.7,0-4-1.4-4-4.1
		c0-21.7,0-43.5,0-65.2c0-2.9,1.3-4.3,4.4-4.3c5.4-0.1,10.8,0,16.2,0c1.3,0,2.2-0.1,2.8-1.7c1.1-2.8,3.4-4.2,6.5-4.1
		c3.1,0,5,1.7,6.1,4.3c0.5,1.2,1.1,1.5,2.2,1.4c5.4,0,10.8,0,16.2,0c3.6,0,4.8,1.2,4.8,4.7C77.7,29.5,77.7,40.1,77.7,50.8z
		 M62.2,16.4c0,1.4,0,2.4,0,3.4c-0.1,2.4-1.1,3.7-3.5,3.8c-7.1,0.1-14.3,0.1-21.4,0c-2.1,0-3.3-1.3-3.4-3.5c0-1.2,0-2.3,0-3.7
		c-3.6,0-7,0.1-10.4,0c-2.1-0.1-2.9,0.7-2.8,2.9c0.1,21.1,0.1,42.2,0,63.3c0,2.2,0.7,2.9,2.8,2.8c16.3-0.1,32.6-0.1,49,0
		c2.3,0,3-0.7,2.9-3c-0.1-16.2,0-32.5,0-48.7c0-4.9,0-9.9,0-14.8c0-1.3-0.1-2.4-1.8-2.4C69.9,16.4,66.2,16.4,62.2,16.4z M59.6,16.4
		c-2.3,0-4.5,0-6.7,0c-0.5-4-2-5.7-4.8-5.8c-3-0.1-4.4,1.5-5.1,5.8c-2.2,0-4.4,0-6.6,0c-0.6,4.8-0.6,4.9,3.7,4.9c5.3,0,10.7,0,16,0
		c3.8,0,3.8,0,3.7-3.8C59.8,17.3,59.7,17,59.6,16.4z"/>
	<path class="st0" d="M45.5,63.1c-4-3.8-7.9-7.3-11.9-11.1c0.9-0.7,1.7-1.4,2.3-1.9c2.9,2.7,5.9,5.6,9,8.6
		c5.9-5.6,11.6-11.2,17.5-16.9c0.8,0.9,1.6,1.7,2.4,2.6C58.2,50.9,51.7,57.2,45.5,63.1z"/>
</g>
</svg>
