<?xml version="1.0" encoding="utf-8"?>
<!-- Generator: Adobe Illustrator 23.0.3, SVG Export Plug-In . SVG Version: 6.00 Build 0)  -->
<svg version="1.1" id="Layer_1" xmlns="http://www.w3.org/2000/svg" xmlns:xlink="http://www.w3.org/1999/xlink" x="0px" y="0px"
	 viewBox="0 0 96 96" style="enable-background:new 0 0 96 96;" xml:space="preserve">
<style type="text/css">
	.st0{display:none;}
	.st1{display:inline;}
	.st2{fill:#FFFFFF;}
	.st3{fill:#408F42;}
</style>
<g id="Layer_1_1_" class="st0">
	<g class="st1">
		<path class="st2" d="M84.5,48c0.1,20.3-16.1,36.5-36.4,36.5s-36.5-16-36.6-36.3C11.4,27.7,27.6,11.5,48,11.5
			C68.3,11.5,84.5,27.6,84.5,48z"/>
		<path class="st3" d="M36.4,57.2c2.8,0,5.5,0,8.6,0c0-10.2,0-20.3,0-30.6c2.1,0,3.9,0,6,0c0,10.1,0,20.2,0,30.5c3.1,0,5.9,0,8.5,0
			C55.7,61.1,51.8,65,48,69C44.1,65.2,40.3,61.3,36.4,57.2z"/>
	</g>
</g>
<g id="Layer_2_1_">
	<g>
		<path class="st2" d="M47.1,40.9v-9c-0.8,0.9-1.4,1.5-2,2.1c-0.5,0.5-1,0.6-1.5,0.1s-0.3-1,0.1-1.5c1.2-1.2,2.5-2.5,3.7-3.7
			c0.5-0.5,1-0.4,1.5,0c1.2,1.2,2.5,2.4,3.7,3.7c0.4,0.5,0.6,1,0.1,1.5s-1,0.3-1.5-0.1c-0.6-0.6-1.2-1.2-2-2v8.8
			c0.8-0.8,1.3-1.4,2-2c0.5-0.5,1-0.7,1.6-0.1c0.5,0.6,0.3,1.1-0.2,1.6c-1.1,1.1-2.3,2.3-3.4,3.4c-0.6,0.7-1.2,0.7-1.9,0
			c-1.1-1.2-2.3-2.3-3.4-3.4c-0.5-0.5-0.8-1-0.2-1.6c0.5-0.5,1.1-0.3,1.6,0.2C45.8,39.4,46.3,40,47.1,40.9z"/>
		<path class="st2" d="M65.5,49.1c0-3.6,0.1-6.2,0-8.7c-0.4-9.2-8.2-16.7-17.4-16.6c-8.6,0-16.1,6.4-17.2,15
			c-0.7,6.1-0.7,12.2,0,18.3c1,8.8,8.3,15,17.1,15.2c8,0.2,15.3-5.7,17.1-13.8C65.9,55,65.4,51.5,65.5,49.1z M33.1,37.6
			c2.6-11.3,16.7-15.8,25.3-8c3.4,3.1,5.2,7,5.2,11.6c0,1.6,0,3.2,0,4.9c0,0.8-0.2,1-1,1c-4.9,0-9.7,0-14.6,0c-4.8,0-9.6,0-14.5,0
			c-0.8,0-1.1-0.1-1-1C32.7,43.2,32.4,40.4,33.1,37.6z M63.6,50c-0.1,2.8,0.2,5.6-0.5,8.5c-1.3,5.9-6.6,10.8-12.6,11.7
			C44.2,71,37.9,68,34.8,62.7c-1.6-2.8-2.3-5.7-2.2-8.8c0-1.3,0.1-2.6,0-3.9c0-0.8,0.2-1,1-1c4.8,0,9.7,0,14.6,0c4.8,0,9.6,0,14.4,0
			C63.4,49,63.7,49.1,63.6,50z"/>
		<path class="st2" d="M52.7,38.6c0.5,0.6,0.3,1.1-0.2,1.6c-1.1,1.1-2.3,2.3-3.4,3.4c-0.6,0.7-1.2,0.7-1.9,0
			c-1.1-1.2-2.3-2.3-3.4-3.4c-0.5-0.5-0.8-1-0.2-1.6c0.5-0.5,1.1-0.3,1.6,0.2c0.6,0.6,1.1,1.2,1.9,2.1v-9c-0.8,0.9-1.4,1.5-2,2.1
			c-0.5,0.5-1,0.6-1.5,0.1s-0.3-1,0.1-1.5c1.2-1.2,2.5-2.5,3.7-3.7c0.5-0.5,1-0.4,1.5,0c1.2,1.2,2.5,2.4,3.7,3.7
			c0.4,0.5,0.6,1,0.1,1.5s-1,0.3-1.5-0.1c-0.6-0.6-1.2-1.2-2-2v8.8c0.8-0.8,1.3-1.4,2-2C51.6,38.3,52.1,38,52.7,38.6z"/>
		<path class="st2" d="M52.7,38.6c0.5,0.6,0.3,1.1-0.2,1.6c-1.1,1.1-2.3,2.3-3.4,3.4c-0.6,0.7-1.2,0.7-1.9,0
			c-1.1-1.2-2.3-2.3-3.4-3.4c-0.5-0.5-0.8-1-0.2-1.6c0.5-0.5,1.1-0.3,1.6,0.2c0.6,0.6,1.1,1.2,1.9,2.1v-9c-0.8,0.9-1.4,1.5-2,2.1
			c-0.5,0.5-1,0.6-1.5,0.1s-0.3-1,0.1-1.5c1.2-1.2,2.5-2.5,3.7-3.7c0.5-0.5,1-0.4,1.5,0c1.2,1.2,2.5,2.4,3.7,3.7
			c0.4,0.5,0.6,1,0.1,1.5s-1,0.3-1.5-0.1c-0.6-0.6-1.2-1.2-2-2v8.8c0.8-0.8,1.3-1.4,2-2C51.6,38.3,52.1,38,52.7,38.6z"/>
	</g>
</g>
</svg>
