<?xml version="1.0" encoding="utf-8"?>
<!-- Generator: Adobe Illustrator 24.0.3, SVG Export Plug-In . SVG Version: 6.00 Build 0)  -->
<svg version="1.1" id="Layer_1" xmlns="http://www.w3.org/2000/svg" xmlns:xlink="http://www.w3.org/1999/xlink" x="0px" y="0px"
	 viewBox="0 0 96 96" style="enable-background:new 0 0 96 96;" xml:space="preserve">
<style type="text/css">
	.st0{fill:#163F6C;}
</style>
<g>
	<path class="st0" d="M38.64,42.71c-0.24-5,3.8-9.4,9.02-9.69c5.06-0.28,9.4,3.75,9.69,9.01c0.28,5.05-3.83,9.53-9.15,9.67
		C42.65,51.85,38.86,47.45,38.64,42.71z"/>
	<path class="st0" d="M92.12,46.27c-8.38-8.93-17.98-16.07-29.68-20.12c-11.21-3.89-22.23-3.11-33.03,1.56
		C19.72,31.9,11.54,38.23,4.26,45.79c-1.79,1.86-1.77,2.57,0.05,4.45c5.44,5.66,11.43,10.63,18.24,14.58
		c7.86,4.56,16.23,7.42,25.41,7.52c3.15,0.04,6.26-0.31,9.32-1.04c14.01-3.34,25.17-11.34,34.88-21.63
		C93.39,48.37,93.37,47.61,92.12,46.27z M29.57,38.9c0.61-3.09,1.86-5.86,3.84-8.3c0.25-0.32,0.49-0.62,0.9-0.79
		c3.46-1.45,11.33-2.7,15.29-2.36c3.75,0.1,7.53,1.04,11.3,2.1c1.68,0.47,2.33,1.82,3.08,3.05c5.19,8.59,2.92,19.34-5.25,25.15
		c-6.13,4.37-14.64,4.47-21.16,0.24C31.39,53.99,28.14,46.17,29.57,38.9z M87.91,48.63c-9.02,9.07-19.17,16.28-31.9,19.12
		c-7.9,1.76-15.61,0.8-23.11-2.1c-9.54-3.69-17.54-9.63-24.65-16.87c-0.4-0.41-0.87-0.69-0.19-1.39
		c5.65-5.87,12.09-10.66,19.36-14.5c-4.17,12.05-1.56,21.93,9.32,28.89c7.73,4.94,17.87,3.97,25.37-1.92
		c7.79-6.12,9.97-15.2,6.37-27.04c7.42,3.89,13.81,8.76,19.49,14.6C88.46,47.92,88.33,48.2,87.91,48.63z"/>
	<path class="st0" d="M48.21,51.71c-5.56,0.15-9.34-4.25-9.57-8.99c-0.24-5,3.8-9.4,9.02-9.69c5.06-0.28,9.4,3.75,9.69,9.01
		C57.64,47.09,53.53,51.56,48.21,51.71z"/>
	<path class="st0" d="M48.21,51.71c-5.56,0.15-9.34-4.25-9.57-8.99c-0.24-5,3.8-9.4,9.02-9.69c5.06-0.28,9.4,3.75,9.69,9.01
		C57.64,47.09,53.53,51.56,48.21,51.71z"/>
</g>
</svg>
