<?xml version="1.0" encoding="utf-8"?>
<!-- Generator: Adobe Illustrator 26.4.1, SVG Export Plug-In . SVG Version: 6.00 Build 0)  -->
<svg version="1.1" id="Layer_1" xmlns="http://www.w3.org/2000/svg" xmlns:xlink="http://www.w3.org/1999/xlink" x="0px" y="0px"
	 viewBox="0 0 48 48" style="enable-background:new 0 0 48 48;" xml:space="preserve">
<style type="text/css">
	.st0{fill:#FFFFFF;}
	.st1{display:none;}
	.st2{display:inline;}
</style>
<g id="Layer_1_00000093153893080520881270000006367755660977195443_">
	<path class="st0" d="M42.3,37.4c0,2.6-1.6,4.2-3.4,4.7c-0.5,0.1-1,0.2-1.4,0.2c-2,0-4.1,0-6.2,0c-0.3,0-0.4-0.1-0.4-0.4
		c0-3.9,0-7.8,0-11.7c0-0.3,0.1-0.4,0.4-0.4c0.9,0,1.8,0,2.7,0c0.2,0,0.3,0,0.4-0.2c0.7-1.8,1.4-3.5,2.1-5.3c0,0,0-0.1,0.1-0.2h-0.5
		c-1.6,0-3.2,0-4.8,0c-0.3,0-0.4-0.1-0.4-0.4c0-1.3,0-2.5,0-3.8c0-0.2,0-0.5,0.1-0.7c0.1-0.4,0.4-0.6,0.9-0.6c0.6,0,1.2-0.1,1.8-0.1
		c0.6,0,1.1,0,1.8,0v-5.8c-0.1,0-0.3,0-0.4,0c-1.5,0-2.9,0-4.4,0c-2.4,0.1-4.2,1.1-5.6,3.1c-0.8,1.2-1.2,2.5-1.1,3.9
		c0,1.3,0,2.7,0,4.1c0,0.3-0.1,0.4-0.4,0.4c-1.2,0-2.5,0-3.7,0h-0.5V30H20c1.2,0,2.4,0,3.5,0c0.3,0,0.4,0.1,0.4,0.4
		c0,3.9,0,7.8,0,11.7c0,0.3-0.1,0.4-0.4,0.4c-4.3,0-8.6,0-13,0c-2.6,0-4.2-1.6-4.6-3.4c-0.1-0.5-0.2-1-0.2-1.5c0-6,0-12,0-18v-8.9
		c0-2.6,1.6-4.2,3.4-4.6c0.5-0.1,1-0.2,1.5-0.2c8.9,0,17.9,0,26.8,0c2.6,0,4.2,1.6,4.7,3.4c0.1,0.5,0.2,1,0.2,1.5v2.5
		C42.3,21.2,42.3,29.3,42.3,37.4z"/>
</g>
<g id="Layer_2_00000067928572409408659190000000929813741718616222_" class="st1">
	<g class="st2">
		<path d="M42.2,24L42.2,24c0-3.2,0-6.4,0-9.6c0-0.7-0.1-1.4-0.2-2c-0.6-2.7-2-4.8-4.6-5.9c-1.2-0.5-2.5-0.7-3.8-0.7
			c-5.9,0-11.7,0-17.6,0c-1.2,0-2.4,0.1-3.6,0.3c-3.2,0.5-5.5,2.7-6.2,5.8c-0.2,1-0.3,2-0.3,3c0,6,0,12,0,17.9
			c0,1.6,0.3,3.1,0.8,4.5c1,2.5,2.8,4,5.4,4.4c2,0.3,4,0.3,5.9,0.4c2.6,0.1,5.1,0,7.7,0c3.1,0,6.2-0.1,9.3-0.2
			c2.3-0.1,4.1-1.1,5.5-2.9c1.2-1.5,1.7-3.3,1.7-5.2C42.2,30.6,42.2,27.3,42.2,24z M37.4,24.5L37.4,24.5c-0.1,1.6,0,3.2-0.1,4.8
			c0,1.2-0.2,2.4-0.7,3.5c-0.8,2.1-2.4,3.5-4.6,4.1c-1.2,0.3-2.4,0.5-3.6,0.5c-3,0-6,0-9,0c-1.1,0-2.3-0.2-3.4-0.4
			c-3-0.7-4.7-2.7-5.2-5.7c-0.2-1.2-0.3-2.4-0.3-3.6c0-2.5,0-5,0-7.5c0-1.2,0.1-2.4,0.3-3.6c0.6-3.2,2.7-5.2,6-5.7
			c1.1-0.2,2.2-0.3,3.3-0.3c2.7,0,5.4-0.1,8.1,0c1.2,0,2.4,0.1,3.6,0.4c3,0.7,4.8,2.7,5.3,5.8c0.2,1.2,0.2,2.5,0.3,3.7
			C37.5,21.8,37.4,23.2,37.4,24.5z"/>
		<path d="M35,19.6c-0.1-1.1-0.3-2.2-0.6-3.2c-0.5-1.7-1.6-2.8-3.4-3.1c-0.8-0.1-1.6-0.3-2.4-0.3c-2.8,0-5.6,0-8.4,0
			c-1,0-1.9,0.1-2.9,0.2c-2.3,0.3-3.5,1.3-4,3.6c-0.2,0.9-0.3,1.8-0.3,2.8c0,3,0,6.1,0,9.2c0,1,0.2,2,0.4,2.9
			c0.3,1.4,1.1,2.3,2.5,2.7c0.8,0.2,1.7,0.4,2.5,0.5c1.8,0.1,3.7,0.1,5.5,0.2c0,0,0,0,0-0.1c1.5,0,3.1,0,4.6,0
			c1.1,0,2.2-0.2,3.2-0.5c1.3-0.5,2.2-1.4,2.7-2.7c0.2-0.7,0.4-1.5,0.4-2.2C35.1,26.2,35.2,22.9,35,19.6z M24,30.9
			c-3.8,0-6.9-3.1-6.9-6.9s3.1-6.9,6.9-6.9s6.9,3.1,6.9,6.9S27.8,30.9,24,30.9z M31.2,18.4c-0.9,0-1.6-0.7-1.6-1.6s0.7-1.6,1.6-1.6
			c0.9,0,1.6,0.7,1.6,1.6C32.7,17.7,32,18.4,31.2,18.4z"/>
		<path class="st0" d="M25.9,19.3c-0.1-0.3-0.3-0.5-0.7-0.5c-1.3,0-2.5,0-3.8,0c-0.1,0-0.1,0-0.2,0c-0.3,0.1-0.5,0.3-0.5,0.7v1.3
			l0,0l0.1-0.1l0,0c0,0,0.1-0.1,0.2-0.1l0.1-0.1l0,0l0.1-0.1l0,0l0.1-0.1l0,0c0,0,0.1-0.1,0.2-0.1l0,0c0,0,0.1,0,0.1-0.1h0.1
			c0,0,0.1,0,0.1-0.1l0,0h0.1H22c0.1,0,0.1,0,0.2-0.1c0.1,0,0.1,0,0.2-0.1c0.1,0,0.1,0,0.2,0h0.1c0.1,0,0.2,0,0.2,0
			c0.2,0,0.5,0,0.7,0c0.1,0,0.1,0,0.2,0l0,0c0.1,0,0.1,0,0.2,0h0.1c0.1,0,0.1,0,0.2,0l0,0c0.1,0,0.1,0,0.2,0s0.1,0,0.2,0l0,0
			c0.1,0,0.3,0.1,0.4,0.1s0.1,0,0.2,0.1c0.1,0,0.1,0.1,0.2,0.1l0,0v-0.4C25.9,19.5,25.9,19.4,25.9,19.3z"/>
		<path d="M28.5,24L28.5,24c0,2.6-1.9,4.5-4.5,4.5s-4.4-1.9-4.4-4.5c0-0.2,0-0.3,0-0.5c0-0.1,0-0.2,0-0.2c0-0.1,0-0.2,0-0.2
			c0-0.1,0-0.2,0.1-0.3c0-0.1,0-0.1,0-0.2s0-0.1,0.1-0.2c0-0.1,0-0.1,0.1-0.2c0-0.1,0-0.1,0.1-0.2c0,0,0,0,0-0.1s0.1-0.1,0.1-0.2
			s0.1-0.1,0.1-0.2l0,0l0.1-0.1c0,0,0,0,0-0.1l0.1-0.1l0,0l0.1-0.1l0,0l0.1-0.1l0.1-0.1l0,0l0,0l0.1-0.1l0,0c0,0,0.1-0.1,0.2-0.1
			l0.1-0.1l0,0l0.1-0.1l0,0l0.1-0.1l0,0c0,0,0.1-0.1,0.2-0.1l0,0c0,0,0.1,0,0.1-0.1h0.1c0,0,0.1,0,0.1-0.1l0,0h0.1H22
			c0.1,0,0.1,0,0.2-0.1c0.1,0,0.1,0,0.2-0.1c0.1,0,0.1,0,0.2,0h0.1c0.1,0,0.2,0,0.2,0c0.2,0,0.5,0,0.7,0c0.1,0,0.1,0,0.2,0l0,0
			c0.1,0,0.1,0,0.2,0h0.1c0.1,0,0.1,0,0.2,0l0,0c0.1,0,0.1,0,0.2,0s0.1,0,0.2,0l0,0c0.1,0,0.3,0.1,0.4,0.1s0.1,0,0.2,0.1
			c0.1,0,0.1,0.1,0.2,0.1l0,0c0,0,0.1,0,0.1,0.1c0,0,0.1,0,0.1,0.1c0.1,0,0.2,0.1,0.3,0.2c0,0,0.1,0,0.1,0.1c0,0,0.1,0,0.1,0.1
			c0.1,0,0.1,0.1,0.2,0.1c0,0,0.1,0,0.1,0.1c0.1,0.1,0.2,0.1,0.2,0.2c0,0,0,0,0.1,0.1l0.1,0.1l0.1,0.1c0,0,0,0.1,0.1,0.1
			c0.1,0.1,0.1,0.1,0.1,0.2l0.1,0.1l0.1,0.1c0,0.1,0.1,0.1,0.1,0.2v0.1c0,0,0,0.1,0.1,0.1l0,0c0,0.1,0.1,0.1,0.1,0.2s0,0.1,0.1,0.2
			v0.1V23c0,0.1,0.1,0.3,0.1,0.4v0.1c0,0.1,0,0.1,0,0.2l0,0c0,0.1,0,0.1,0,0.2c0,0,0,0,0,0.1s0,0.1,0,0.2l0,0
			C28.5,23.8,28.5,23.9,28.5,24z"/>
	</g>
</g>
</svg>
