<?xml version="1.0" encoding="utf-8"?>
<!-- Generator: Adobe Illustrator 22.0.1, SVG Export Plug-In . SVG Version: 6.00 Build 0)  -->
<svg version="1.1" id="Layer_1" xmlns="http://www.w3.org/2000/svg" xmlns:xlink="http://www.w3.org/1999/xlink" x="0px" y="0px"
	 viewBox="0 0 96 96" style="enable-background:new 0 0 96 96;" xml:space="preserve">
<style type="text/css">
	.st0{fill:#408F42;}
</style>
<g>
	<path class="st0" d="M45.8,9.7c0.4-1.4,0-3.3,2.2-3.3s1.9,1.8,2.2,3.3c0.7,0,1.5,0,2.3,0c10.8,0,21.6,0,32.3,0
		c2.4,0,2.9,0.4,2.9,2.8c0,15.7,0,31.3,0,47c0,5.6-3.7,9-9.6,9c-11.2,0-22.4,0-33.6,0c-8.7,0-17.4,0-26,0c-6.8,0-10.1-3.2-10.1-10
		c0-15.2,0-30.4,0-45.6c0-3,0.2-3.2,3.2-3.2c10.6,0,21.3,0,31.9,0C44.2,9.7,45,9.7,45.8,9.7z M83.7,13.7c-24,0-47.6,0-71.4,0
		c0,0.7,0,1.2,0,1.8c0,14.5,0,29,0,43.5c0,3.9,1.7,5.7,5.6,5.7c20.1,0,40.2,0,60.3,0c3.9,0,5.6-1.8,5.6-5.7c0-9.7,0-19.5,0-29.2
		C83.7,24.4,83.7,19.1,83.7,13.7z"/>
	<path class="st0" d="M45.5,79.5c-2.7,2.7-5.3,5.5-8,8.2c-0.4,0.4-0.8,1.1-1.4,1.3c-0.9,0.2-1.9,0-2.8,0c0-0.9-0.3-2.3,0.2-2.8
		c4.2-4.5,8.6-8.8,13-13.1c1-1,2-0.9,2.9,0.1c4.4,4.3,8.7,8.7,13.1,13c0.9,1,1.1,2.2-0.1,2.9c-0.6,0.4-2.1,0.2-2.7-0.3
		c-2.7-2.4-5.2-5.1-7.8-7.7c-0.5-0.5-0.9-1.2-1.3-1.8c-0.2,0.1-0.4,0.3-0.6,0.4c0,2.4,0,4.8,0,7.2c0,1.3-0.2,2.7-1.9,2.7
		c-1.8,0-2.1-1.3-2.1-2.7c0-2.4,0-4.7,0-7.1C45.8,79.7,45.7,79.6,45.5,79.5z"/>
	<path class="st0" d="M53.5,51.3c5.1-8.4,10-16.5,14.7-24.4c-0.7-1-1.8-2.1-1.6-2.7c0.3-0.9,1.4-1.7,2.3-2.3
		c1.2-0.8,2.4-1.3,3.7-1.9c1.7-0.8,2.9-0.1,3,1.8c0.1,1.8,0.1,3.6,0,5.5c-0.1,0.9-0.4,2.3-1.1,2.6c-0.7,0.4-1.9-0.2-3.2-0.4
		c-4.9,8.2-10.1,16.7-15.2,25.3c-1.5,2.5-2.4,2.7-4.5,0.6c-5-5.2-10.1-10.3-15.1-15.4c-0.5-0.5-0.9-1.3-1.5-2.3
		c-1.8,3.4-3.2,6-4.6,8.7C30.1,47,30,47.7,29.5,48c-0.8,0.5-1.7,0.8-2.6,1.2c-0.4-0.9-1.3-2-1-2.6c2.1-4.4,4.3-8.8,6.8-13
		c0.9-1.6,2.5-0.7,3.6,0.3c2.8,2.7,5.6,5.5,8.3,8.3C47.4,45.2,50.3,48.1,53.5,51.3z"/>
	<path class="st0" d="M23.5,57.4c-0.9-1.3-1.8-2-1.9-2.8c-0.2-1.3,0.8-2.2,2.1-1.8c0.8,0.2,1.8,1.2,1.8,1.9
		C25.6,55.3,24.5,56.1,23.5,57.4z"/>
</g>
</svg>
