<?xml version="1.0" encoding="utf-8"?>
<!-- Generator: Adobe Illustrator 23.0.3, SVG Export Plug-In . SVG Version: 6.00 Build 0)  -->
<svg version="1.1" id="Layer_1" xmlns="http://www.w3.org/2000/svg" xmlns:xlink="http://www.w3.org/1999/xlink" x="0px" y="0px"
	 viewBox="0 0 96 96" style="enable-background:new 0 0 96 96;" xml:space="preserve">
<style type="text/css">
	.st0{display:none;}
	.st1{display:inline;}
	.st2{fill:#FFFFFF;}
	.st3{fill:#408F42;}
</style>
<g id="Layer_1_1_" class="st0">
	<g class="st1">
		<path class="st2" d="M84.5,48c0.1,20.3-16.1,36.5-36.4,36.5s-36.5-16-36.6-36.3C11.4,27.7,27.6,11.5,48,11.5
			C68.3,11.5,84.5,27.6,84.5,48z"/>
		<path class="st3" d="M36.4,57.2c2.8,0,5.5,0,8.6,0c0-10.2,0-20.3,0-30.6c2.1,0,3.9,0,6,0c0,10.1,0,20.2,0,30.5c3.1,0,5.9,0,8.5,0
			C55.7,61.1,51.8,65,48,69C44.1,65.2,40.3,61.3,36.4,57.2z"/>
	</g>
</g>
<g>
	<path class="st2" d="M33.3,19.5c-3.4,1.4-6.8,0.6-10,1c-1.2,0.1-2.4,0.2-3.3,1.2c-1.4,1.5-4.2,1.1-5.6-0.6
		c-1.2-1.5-0.9-4.2,0.8-5.3c1.4-1,3-1.6,4.5-2.5c2.1-1.3,4.6-2.2,5.6-4.8c0.1-0.3,0.5-0.8,0.8-0.8C29.4,7.6,29,5.2,29,3.1
		c4.6,1.9,9.6-0.1,14.3,2C43.6,6,42,6.2,41.8,7.3c1.5,0.2,2.9,0.4,4.7,0.7c-0.7,0.7-1.2,1.1-1.8,1.6c2.8,1.2,5.9,2,8,4.5
		c-1.2,0.6-3.4-0.5-3.6,1.2c-0.2,1.1,1.8,1.6,2.8,2.3c0.9,0.6,1.9,1,2.9,1.5c-1,1.7-2.9,1.8-4.7,2.3c1.3,0.6,2.4,0.9,3.5,1.5
		c0.6,0.4,2.3,0.4,0.8,1.9c-0.6,0.6,0.5,0.8,0.9,1.2c0.8,0.8,1.5,1.5,1.8,2.6c-0.6,0.7-1.3-0.4-1.9,0.3c0.5,1.4,1.5,2.6,1.6,4.2
		c-1,0.4-2.7-0.8-3.2,1.1c-0.3,1.5,1.1,1.9,1.8,2.6c3,2.7,6.3,5,10.2,6.3c4.8,1.7,8.4,4.6,9.8,9.7c0.4,1.6,1,1.8,2.5,1.2
		c8.4-3.2,13.2-0.6,15.2,8.3c1.8,8,1.5,14-1.1,18.8c-4.1-4.4-6.5-9.6-7.5-15.6c-0.3-1.8-1-3.5-1.7-5.1c-0.8-1.7-2.3-2.4-4.1-2.5
		c-1.8,0-2.5,1.1-3.1,2.6c-1.4,3.5-4.1,5.9-7.7,7.1c-2.1,0.7-3,1.6-1.2,3.4c3.9,4.1,5.5,8.4,2,13.7c-1.1,1.6,0.7,4.9-2.7,5.5
		c0,6.9-5.6,2.2-8.2,3.9c0.2-0.5,0.2-1.3,0.6-1.6c3.3-2.6,3.2-7.2,6-10.1c1.7-1.7,1.4-3.4-0.9-4.9c-3.5-2.2-6.8-4.7-9.9-7.4
		c-3.9-3.5-4.3-6.1-1.3-10.4c0.4-0.5,1.2-0.8,0.7-1.9c-1.4,0-2.4,0.9-3.1,1.9c-1,1.6-2.1,1.4-3.5,0.8c-5.1-2.3-8.9-6.2-11.7-11
		c-1.3-2.3-2.5-3.2-5.1-2c-1.5,0.7-3.3,0.8-4.9,1.1c0.4,4.2,4.3,5,7,6.7c2.3,1.5,3.1,2.9,2,5.3c-0.5,1-0.9,1.2-2,0.8
		c-6.6-2.6-10.2-8.1-13.2-14c-0.6-1.3-0.5-2.4,0.9-3.4c3.8-2.6,6.9-5.9,10.2-8.9c2.3-2.1,2.5-4.9,2.6-7.8
		C32.1,25.1,30.5,22.1,33.3,19.5z"/>
	<path class="st2" d="M52.4,73.3c2.2,1.8,4.3,3.6,6.4,5.4c1.9,1.6,1.8,3.6,0,5.3c-2.3,2.1-4.9,3.9-5.1,7.5c0,0.1,0,0.3-0.1,0.3
		c-1.6,0.7-2.9,1.3-4.2,2.8c-1.1,1.4-4.2,0.5-6-0.4c-1.8-0.9-0.2-2.4,0.7-3c3.8-2.6,5.9-6.9,9.7-9.5c1.1-0.8,0.6-2.2,0.2-3.4
		c-0.6-1.6-1.4-3.2-2.1-4.9C52.1,73.4,52.2,73.3,52.4,73.3z"/>
	<path class="st2" d="M26.2,34.8c-2.4,2-3.8,5.2-7.8,4.9c-1.6-0.1-3.7,1.6-5,3C8.3,48.1,8.2,48.2,1.8,45c1.1-2.1,3.5-2.4,5.2-3.6
		c3.6-2.6,8-3.9,11.8-6.3C20.8,33.8,23.7,34.6,26.2,34.8z"/>
	<path class="st2" d="M34.2,15c0.1,1.9,0.7,3.1-1.3,4.2C33.4,17.7,33.7,16.7,34.2,15z"/>
</g>
</svg>
