<?xml version="1.0" encoding="utf-8"?>
<!-- Generator: Adobe Illustrator 26.4.1, SVG Export Plug-In . SVG Version: 6.00 Build 0)  -->
<svg version="1.1" id="Layer_2" xmlns="http://www.w3.org/2000/svg" xmlns:xlink="http://www.w3.org/1999/xlink" x="0px" y="0px"
	 viewBox="0 0 48 48" style="enable-background:new 0 0 48 48;" xml:space="preserve">
<style type="text/css">
	.st0{fill:#FFFFFF;}
</style>
<g>
	<path class="st0" d="M42.2,24C42.2,24,42.2,24,42.2,24c0-3.2,0-6.4,0-9.6c0-0.7-0.1-1.4-0.2-2c-0.6-2.7-2-4.8-4.6-5.9
		c-1.2-0.5-2.5-0.7-3.8-0.7c-5.9,0-11.7,0-17.6,0c-1.2,0-2.4,0.1-3.6,0.3c-3.2,0.5-5.5,2.7-6.2,5.8c-0.2,1-0.3,2-0.3,3
		c0,6,0,12,0,17.9c0,1.6,0.3,3.1,0.8,4.5c1,2.5,2.8,4,5.4,4.4c2,0.3,4,0.3,5.9,0.4c2.6,0.1,5.1,0,7.7,0c3.1,0,6.2-0.1,9.3-0.2
		c2.3-0.1,4.1-1.1,5.5-2.9c1.2-1.5,1.7-3.3,1.7-5.2C42.2,30.6,42.2,27.3,42.2,24z M37.4,24.5L37.4,24.5c-0.1,1.6,0,3.2-0.1,4.8
		c0,1.2-0.2,2.4-0.7,3.5c-0.8,2.1-2.4,3.5-4.6,4.1c-1.2,0.3-2.4,0.5-3.6,0.5c-3,0-6,0-9,0c-1.1,0-2.3-0.2-3.4-0.4
		c-3-0.7-4.7-2.7-5.2-5.7c-0.2-1.2-0.3-2.4-0.3-3.6c0-2.5,0-5,0-7.5c0-1.2,0.1-2.4,0.3-3.6c0.6-3.2,2.7-5.2,6-5.7
		c1.1-0.2,2.2-0.3,3.3-0.3c2.7,0,5.4-0.1,8.1,0c1.2,0,2.4,0.1,3.6,0.4c3,0.7,4.8,2.7,5.3,5.8c0.2,1.2,0.2,2.5,0.3,3.7
		C37.5,21.8,37.4,23.2,37.4,24.5z"/>
	<path class="st0" d="M35,19.6c-0.1-1.1-0.3-2.2-0.6-3.2c-0.5-1.7-1.6-2.8-3.4-3.1c-0.8-0.1-1.6-0.3-2.4-0.3c-2.8,0-5.6,0-8.4,0
		c-1,0-1.9,0.1-2.9,0.2c-2.3,0.3-3.5,1.3-4,3.6c-0.2,0.9-0.3,1.8-0.3,2.8c0,3,0,6.1,0,9.2c0,1,0.2,2,0.4,2.9
		c0.3,1.4,1.1,2.3,2.5,2.7c0.8,0.2,1.7,0.4,2.5,0.5c1.8,0.1,3.7,0.1,5.5,0.2c0,0,0,0,0-0.1c1.5,0,3.1,0,4.6,0c1.1,0,2.2-0.2,3.2-0.5
		c1.3-0.5,2.2-1.4,2.7-2.7c0.2-0.7,0.4-1.5,0.4-2.2C35.1,26.2,35.2,22.9,35,19.6z M24,30.9c-3.8,0-6.9-3.1-6.9-6.9
		c0-3.8,3.1-6.9,6.9-6.9c3.8,0,6.9,3.1,6.9,6.9C30.9,27.8,27.8,30.9,24,30.9z M31.2,18.4c-0.9,0-1.6-0.7-1.6-1.6
		c0-0.9,0.7-1.6,1.6-1.6c0.9,0,1.6,0.7,1.6,1.6C32.7,17.7,32,18.4,31.2,18.4z"/>
	<path class="st0" d="M28.5,24L28.5,24c0,2.6-1.9,4.5-4.5,4.5c-2.6,0-4.4-1.9-4.4-4.5c0-0.2,0-0.3,0-0.5c0-0.1,0-0.2,0-0.2
		c0-0.1,0-0.2,0-0.2c0-0.1,0-0.2,0.1-0.3c0-0.1,0-0.1,0-0.2c0-0.1,0-0.1,0.1-0.2c0-0.1,0-0.1,0.1-0.2c0-0.1,0-0.1,0.1-0.2
		c0,0,0,0,0-0.1c0-0.1,0.1-0.1,0.1-0.2c0-0.1,0.1-0.1,0.1-0.2c0,0,0,0,0,0c0,0,0.1-0.1,0.1-0.1c0,0,0,0,0-0.1c0,0,0.1-0.1,0.1-0.1
		c0,0,0,0,0,0c0,0,0.1-0.1,0.1-0.1c0,0,0,0,0,0c0,0,0.1-0.1,0.1-0.1c0,0,0.1-0.1,0.1-0.1c0,0,0,0,0,0c0,0,0,0,0,0
		c0,0,0.1-0.1,0.1-0.1c0,0,0,0,0,0c0,0,0.1-0.1,0.2-0.1c0,0,0.1-0.1,0.1-0.1c0,0,0,0,0,0c0,0,0.1-0.1,0.1-0.1c0,0,0,0,0,0
		c0,0,0.1-0.1,0.1-0.1c0,0,0,0,0,0c0,0,0.1-0.1,0.2-0.1c0,0,0,0,0,0c0,0,0.1,0,0.1-0.1c0,0,0.1,0,0.1,0c0,0,0.1,0,0.1-0.1
		c0,0,0,0,0,0c0,0,0.1,0,0.1,0c0,0,0.1,0,0.1,0c0.1,0,0.1,0,0.2-0.1c0.1,0,0.1,0,0.2-0.1c0.1,0,0.1,0,0.2,0c0,0,0.1,0,0.1,0
		c0.1,0,0.2,0,0.2,0c0.2,0,0.5,0,0.7,0c0.1,0,0.1,0,0.2,0c0,0,0,0,0,0c0.1,0,0.1,0,0.2,0c0,0,0.1,0,0.1,0c0.1,0,0.1,0,0.2,0
		c0,0,0,0,0,0c0.1,0,0.1,0,0.2,0c0.1,0,0.1,0,0.2,0c0,0,0,0,0,0c0.1,0,0.3,0.1,0.4,0.1c0.1,0,0.1,0,0.2,0.1c0.1,0,0.1,0.1,0.2,0.1h0
		c0,0,0.1,0,0.1,0.1c0,0,0.1,0,0.1,0.1c0.1,0,0.2,0.1,0.3,0.2c0,0,0.1,0,0.1,0.1c0,0,0.1,0,0.1,0.1c0.1,0,0.1,0.1,0.2,0.1
		c0,0,0.1,0,0.1,0.1c0.1,0.1,0.2,0.1,0.2,0.2c0,0,0,0,0.1,0.1c0,0,0.1,0.1,0.1,0.1c0,0,0.1,0.1,0.1,0.1c0,0,0,0.1,0.1,0.1
		c0.1,0.1,0.1,0.1,0.1,0.2c0,0,0.1,0.1,0.1,0.1c0,0,0.1,0.1,0.1,0.1c0,0.1,0.1,0.1,0.1,0.2c0,0,0,0.1,0,0.1c0,0,0,0.1,0.1,0.1
		c0,0,0,0,0,0c0,0.1,0.1,0.1,0.1,0.2c0,0.1,0,0.1,0.1,0.2c0,0,0,0.1,0,0.1c0,0,0,0.1,0,0.1c0,0.1,0.1,0.3,0.1,0.4c0,0,0,0.1,0,0.1
		c0,0.1,0,0.1,0,0.2c0,0,0,0,0,0c0,0.1,0,0.1,0,0.2c0,0,0,0,0,0.1c0,0.1,0,0.1,0,0.2c0,0,0,0,0,0C28.5,23.8,28.5,23.9,28.5,24z"/>
</g>
</svg>
