<?xml version="1.0" encoding="utf-8"?>
<!-- Generator: Adobe Illustrator 22.0.1, SVG Export Plug-In . SVG Version: 6.00 Build 0)  -->
<svg version="1.1" id="Layer_1" xmlns="http://www.w3.org/2000/svg" xmlns:xlink="http://www.w3.org/1999/xlink" x="0px" y="0px"
	 viewBox="0 0 96 96" style="enable-background:new 0 0 96 96;" xml:space="preserve">
<style type="text/css">
	.st0{fill:#408F42;}
</style>
<g>
	<path class="st0" d="M57.4,31c4.8,5.6,5.1,12.8,0.7,17.7c-0.3,0.3-0.6,0.5-1.1,0.9c-2.1-5.9-4.7-11.1-9.9-14.6
		c0.9,1.8,1.8,3.5,2.6,5.4c2.6,5.9,4.3,11.9,3.1,18.4c-0.2,1,0,2.7-1.3,2.7c-1.7-0.1-3.5-0.7-4.9-1.7c-0.4-0.3,0.2-1,0.3-1.5
		c0.6-1.9,1.5-3.8,0.9-5.8C41.6,55,35.7,50.2,35,43.8c-0.8-7.4,1.1-14.3,3.7-21.1c0.3-0.8,0.6-1.1,1.4-0.9
		C46.6,23.4,52.8,25.7,57.4,31z"/>
	<path class="st0" d="M80,32.6c-2.4-12.7-9.7-21.5-21.9-25.5s-23.5-1.4-32.9,7.7c-10.1,9.8-13.6,26.7-4.1,40c2.2,3,4.5,5.8,6.9,8.7
		c2.5,3.1,4.1,6.5,3.7,10.6c-0.2,2-0.2,4,0.2,6c0.7,3.6,3.7,6.4,7.3,6.5c1.2,0,2,0.4,2.8,1.4c2.1,2.6,6.5,3.7,9.2,2
		c2.7-1.8,5.5-3.2,8.6-4.4c3.6-1.4,4.8-4.9,4.5-8.6c-0.6-6,0.9-11,5.1-15.3c1.1-1.1,2-2.3,3-3.5c4.8-5.9,8.3-12.4,8.1-20.6
		C80.4,36.1,80.4,34.3,80,32.6z M66.3,52.6c-2.3,2.6-4.5,5.3-6.3,8.2c-1.6,2.5-2.8,5.1-3.1,8c-0.2,1.3-0.7,1.6-1.8,1.6
		c-2.3-0.1-4.7,0-7,0s-4.7,0-7,0c-0.9,0-1.5,0-1.7-1.2c-0.6-4.5-2.8-8.3-5.6-11.8c-2-2.4-4-4.8-5.8-7.4
		c-9.5-13.3-1.5-32.6,14.8-35.9c14-2.9,26.6,5.3,29.3,19.2C73.4,40.7,71.1,47.1,66.3,52.6z"/>
	<path class="st0" d="M58.1,48.7c-0.3,0.3-0.6,0.5-1.1,0.9c-2.1-5.9-4.7-11.1-9.9-14.6c0.9,1.8,1.8,3.5,2.6,5.4
		c2.6,5.9,4.3,11.9,3.1,18.4c-0.2,1,0,2.7-1.3,2.7c-1.7-0.1-3.5-0.7-4.9-1.7c-0.4-0.3,0.2-1,0.3-1.5c0.6-1.9,1.5-3.8,0.9-5.8
		C41.6,55,35.7,50.2,35,43.8c-0.8-7.4,1.1-14.3,3.7-21.1c0.3-0.8,0.6-1.1,1.4-0.9c6.5,1.6,12.7,3.8,17.3,9.2
		C62.2,36.6,62.5,43.9,58.1,48.7z"/>
	<path class="st0" d="M58.1,48.7c-0.3,0.3-0.6,0.5-1.1,0.9c-2.1-5.9-4.7-11.1-9.9-14.6c0.9,1.8,1.8,3.5,2.6,5.4
		c2.6,5.9,4.3,11.9,3.1,18.4c-0.2,1,0,2.7-1.3,2.7c-1.7-0.1-3.5-0.7-4.9-1.7c-0.4-0.3,0.2-1,0.3-1.5c0.6-1.9,1.5-3.8,0.9-5.8
		C41.6,55,35.7,50.2,35,43.8c-0.8-7.4,1.1-14.3,3.7-21.1c0.3-0.8,0.6-1.1,1.4-0.9c6.5,1.6,12.7,3.8,17.3,9.2
		C62.2,36.6,62.5,43.9,58.1,48.7z"/>
</g>
</svg>
