<?xml version="1.0" encoding="utf-8"?>
<!-- Generator: Adobe Illustrator 22.0.1, SVG Export Plug-In . SVG Version: 6.00 Build 0)  -->
<svg version="1.1" id="Layer_1" xmlns="http://www.w3.org/2000/svg" xmlns:xlink="http://www.w3.org/1999/xlink" x="0px" y="0px"
	 viewBox="0 0 96 96" style="enable-background:new 0 0 96 96;" xml:space="preserve">
<style type="text/css">
	.st0{fill:#408F42;}
</style>
<g>
	<path class="st0" d="M92.9,48.9c0-11.1,0-22.3,0-33.4c0-1,0.3-1.9-1.1-2.5c-5.9-2.4-12-4.1-18.3-4.7C65.2,7.7,57.3,9,49.6,11.8
		c-1.2,0.4-2.1,0.3-3.3-0.1c-4.5-1.6-9.2-2.7-14-3.2c-9.5-0.9-18.5,1.2-27.4,4.4C3.4,13.3,3,14,3,15.5C3.1,37.8,3.1,60,3,82.3
		c0,1.7,0.4,2.2,2.2,2.2c11.7-0.1,23.4,0,35.1-0.1c1,0,1.8,0.2,2.6,1.1c2.7,3.1,7.2,3,10,0c0.8-0.9,1.6-1.1,2.6-1.1
		c11.6,0,23.1,0,34.7,0.1c2,0,2.7-0.4,2.7-2.6C92.9,70.9,92.9,59.9,92.9,48.9z M44.5,72.5c0,1.2-0.1,1.7-1.5,1.2
		c-10.4-3.4-20.8-3.2-31.2,0c-1.9,0.6-1.9-0.1-1.9-1.5c0-8.6,0-17.3,0-25.9s0-17.3,0-25.9c0-1.4,0.3-2,1.7-2.5
		c10.5-3.7,21-3.3,31.5,0.2c1.2,0.4,1.4,0.9,1.4,2C44.5,37.5,44.5,55,44.5,72.5z M86.1,46.2c0,8.6,0,17.3,0,25.9
		c0,1.8-0.4,2-2.1,1.5c-10.2-3.2-20.5-3-30.8,0c-1.6,0.5-1.8,0.1-1.8-1.4c0-17.4,0-34.8,0-52.2c0-0.9-0.1-1.6,1.1-2
		c10.5-3.6,21-3.9,31.5-0.3c1.5,0.5,2,1.1,2,2.7C86,29.1,86.1,37.7,86.1,46.2z M74.6,41.8c-2.7-1.3-5.3-2.7-8-4
		c-0.4-0.2-1.3-0.3-1.1-1.1c0.2-0.9,1-0.7,1.6-0.7c1,0,2,0,3.1,0c1.3,0,2.2,0.4,2,1.9c-0.2,1.1,0.3,1.6,1.4,1.5c0.6-0.1,1.3,0,2,0
		c0.5,0,1-0.1,1.5,0c1.8,0.3,2.3-0.5,2.1-2.2c-0.4-3.6-2-6.2-5.4-7.5c-0.7-0.3-1.8-0.2-1.6-1.4c0.5-2.8-1-2.9-3.1-2.7
		c-0.7,0.1-1.5,0.1-2.2,0c-1.3-0.1-2,0.3-1.7,1.7c0.3,1.4-0.3,2-1.7,2.5c-2.4,0.9-4,2.6-4.7,5.1c-0.6,1.8-1.1,4.2-0.1,5.5
		c0.9,1.3,2.3,2.7,4.1,3.4c2.8,1.2,5.5,2.6,8.2,4c0.4,0.2,1.3,0.3,1,1.1c-0.2,0.6-0.8,0.9-1.4,0.9c-1.2,0-2.5,0-3.7,0
		c-1,0-1.7-0.6-1.6-1.4c0.3-2.4-1.2-2.1-2.6-2.1c-1,0-2.1,0.1-3.1,0c-0.9-0.1-1.2,0.3-1.2,1.2c-0.2,4.1,1.7,6.9,5.5,8.5
		c0.6,0.3,1.6,0.3,1.3,1.4c-0.5,2.7,1,3,3.1,2.8c0.7-0.1,1.5-0.1,2.2,0c1.4,0.2,1.8-0.3,1.7-1.7c0-0.7-0.7-1.8,0.8-2.1
		c2.8-0.5,3.3-4,6-4.6c0.1,0,0.1-0.4,0.2-0.6C80,47.1,78.3,43.7,74.6,41.8z"/>
	<path class="st0" d="M79.2,51.1c0,0.2-0.1,0.6-0.2,0.6c-2.7,0.6-3.3,4.1-6,4.6c-1.4,0.3-0.8,1.4-0.8,2.1c0.1,1.4-0.4,1.9-1.7,1.7
		c-0.7-0.1-1.5-0.1-2.2,0c-2.1,0.3-3.6,0-3.1-2.8c0.2-1.1-0.7-1.1-1.3-1.4c-3.8-1.6-5.7-4.5-5.5-8.5c0-1,0.3-1.3,1.2-1.2
		c1,0.1,2.1,0,3.1,0c1.5,0,3-0.3,2.6,2.1c-0.1,0.8,0.6,1.5,1.6,1.4c1.2,0,2.5,0,3.7,0c0.6,0,1.2-0.3,1.4-0.9c0.3-0.9-0.6-0.9-1-1.1
		c-2.7-1.4-5.4-2.8-8.2-4c-1.8-0.8-3.2-2.2-4.1-3.4c-1-1.4-0.4-3.7,0.1-5.5c0.7-2.5,2.4-4.2,4.7-5.1c1.3-0.5,1.9-1.1,1.7-2.5
		c-0.3-1.4,0.4-1.8,1.7-1.7c0.7,0.1,1.5,0.1,2.2,0c2-0.2,3.6-0.1,3.1,2.7c-0.2,1.2,0.9,1.1,1.6,1.4c3.4,1.4,5,4,5.4,7.5
		c0.2,1.7-0.3,2.5-2.1,2.2c-0.5-0.1-1,0-1.5,0c-0.7,0-1.3-0.1-2,0c-1.2,0.1-1.6-0.3-1.4-1.5c0.2-1.5-0.7-1.9-2-1.9c-1,0-2,0-3.1,0
		c-0.6,0-1.4-0.2-1.6,0.7c-0.2,0.8,0.7,0.9,1.1,1.1c2.6,1.4,5.3,2.7,8,4C78.3,43.7,80,47.1,79.2,51.1z"/>
	<path class="st0" d="M79.2,51.1c0,0.2-0.1,0.6-0.2,0.6c-2.7,0.6-3.3,4.1-6,4.6c-1.4,0.3-0.8,1.4-0.8,2.1c0.1,1.4-0.4,1.9-1.7,1.7
		c-0.7-0.1-1.5-0.1-2.2,0c-2.1,0.3-3.6,0-3.1-2.8c0.2-1.1-0.7-1.1-1.3-1.4c-3.8-1.6-5.7-4.5-5.5-8.5c0-1,0.3-1.3,1.2-1.2
		c1,0.1,2.1,0,3.1,0c1.5,0,3-0.3,2.6,2.1c-0.1,0.8,0.6,1.5,1.6,1.4c1.2,0,2.5,0,3.7,0c0.6,0,1.2-0.3,1.4-0.9c0.3-0.9-0.6-0.9-1-1.1
		c-2.7-1.4-5.4-2.8-8.2-4c-1.8-0.8-3.2-2.2-4.1-3.4c-1-1.4-0.4-3.7,0.1-5.5c0.7-2.5,2.4-4.2,4.7-5.1c1.3-0.5,1.9-1.1,1.7-2.5
		c-0.3-1.4,0.4-1.8,1.7-1.7c0.7,0.1,1.5,0.1,2.2,0c2-0.2,3.6-0.1,3.1,2.7c-0.2,1.2,0.9,1.1,1.6,1.4c3.4,1.4,5,4,5.4,7.5
		c0.2,1.7-0.3,2.5-2.1,2.2c-0.5-0.1-1,0-1.5,0c-0.7,0-1.3-0.1-2,0c-1.2,0.1-1.6-0.3-1.4-1.5c0.2-1.5-0.7-1.9-2-1.9c-1,0-2,0-3.1,0
		c-0.6,0-1.4-0.2-1.6,0.7c-0.2,0.8,0.7,0.9,1.1,1.1c2.6,1.4,5.3,2.7,8,4C78.3,43.7,80,47.1,79.2,51.1z"/>
</g>
</svg>
