<?xml version="1.0" encoding="utf-8"?>
<!-- Generator: Adobe Illustrator 22.0.1, SVG Export Plug-In . SVG Version: 6.00 Build 0)  -->
<svg version="1.1" id="Layer_1" xmlns="http://www.w3.org/2000/svg" xmlns:xlink="http://www.w3.org/1999/xlink" x="0px" y="0px"
	 viewBox="0 0 96 96" style="enable-background:new 0 0 96 96;" xml:space="preserve">
<style type="text/css">
	.st0{fill:#408F42;}
</style>
<g>
	<path class="st0" d="M51.4,76.8c-0.3,2.8-0.8,3.3-3.1,3.4c-2.8,0.1-3.4-0.5-3.8-3.4c-4.9-1.6-6.7-4.1-6.7-9.3c0-0.1,0-0.2,0-0.4
		c1-6.7-1.6-12.1-5.8-17.1c-3.4-4.1-5.7-8.7-5.4-14.4C27.2,25.9,35,17.3,44.8,16c13.1-1.8,24.3,7.6,24.7,20.8
		c0.1,3.7-1.2,7.1-3.2,10.1c-1.8,2.7-3.7,5.3-5.6,8c-1.7,2.5-2.7,5.3-2.5,8.4c0.1,1.2,0,2.3,0,3.5C58.2,72.7,56.9,74.7,51.4,76.8z
		 M55.5,60.8c1.2-2.6,2.1-5,3.4-7.1c1.7-2.8,3.8-5.4,5.6-8.1c2.4-3.5,3.3-7.5,2.5-11.7C64.2,19.3,47.3,13,35.8,22.3
		c-6.3,5.1-9,14.4-5.4,21c1.1,2.1,2.5,4,3.9,6c2.3,3.4,5,6.5,5.7,10.7c0,0.3,0.5,0.7,0.8,0.7c2,0.1,4,0,6.1,0c0-1.2-0.1-2.2,0-3.1
		c0.1-0.5,0.7-0.8,1-1.2c0.4,0.4,1,0.8,1,1.3c0.2,1,0,2,0,3.1C51.5,60.8,53.6,60.8,55.5,60.8z M40.3,68.7c-0.2,3.1,1.9,5.6,4.8,5.7
		c1.9,0.1,3.9,0.1,5.9,0c1.9-0.1,3.1-1.1,4.3-3c-3.6,0.4-6.8,0.9-10,1.1c-0.5,0-1.1-0.5-1.7-0.8c0.5-0.4,1-1.2,1.6-1.3
		c3-0.5,6-0.9,9.1-1.2c1.6-0.2,2.2-0.8,1.5-2.4C50.5,67.4,45.4,68.1,40.3,68.7z M40.2,66.4c2.7-0.3,5.3-0.6,7.9-0.9
		c2.4-0.3,4.7-0.6,7.1-1c0.3,0,0.5-0.4,0.8-0.6c-0.3-0.2-0.5-0.7-0.8-0.7c-0.8-0.1-1.7,0-2.6,0c-4.1,0-8.2,0-12.3,0
		C40.2,64.4,40.2,65.3,40.2,66.4z"/>
	<path class="st0" d="M78.5,38.3c-1,0-2.1,0.1-3.1-0.1c-0.5-0.1-0.9-0.7-1.4-1.1c0.4-0.4,0.8-1,1.2-1c2.1-0.1,4.3-0.1,6.4,0
		c0.4,0,0.8,0.7,1.3,1c-0.4,0.4-0.8,1.1-1.3,1.2C80.6,38.5,79.6,38.3,78.5,38.3z"/>
	<path class="st0" d="M17.3,38.3c-1,0-2,0.1-2.9,0c-0.5-0.1-0.9-0.7-1.4-1c0.4-0.4,0.8-1.1,1.3-1.2c2.1-0.1,4.1-0.1,6.2,0
		c0.5,0,0.9,0.7,1.3,1.1c-0.5,0.4-0.9,1-1.4,1.1C19.4,38.5,18.4,38.3,17.3,38.3z"/>
	<path class="st0" d="M72.6,45.8c2.3,1,3.8,1.6,5.3,2.4c0.3,0.1,0.5,1,0.4,1.2c-0.3,0.4-1,0.7-1.3,0.6c-1.5-0.5-2.9-1.1-4.3-1.8
		c-0.3-0.1-0.5-0.8-0.4-1.2C72.2,46.5,72.5,46.1,72.6,45.8z"/>
	<path class="st0" d="M24.1,47.6c-0.7,0.4-1.3,1-2,1.2c-1.4,0.4-2.8,0.7-4.2,1c0.1-0.6,0-1.5,0.3-1.7c1.4-0.8,2.8-1.4,4.3-1.9
		c0.4-0.1,1,0.4,1.5,0.6C24,47.2,24.1,47.4,24.1,47.6z"/>
	<path class="st0" d="M18.6,24.1c1.7,0.7,3.3,1.4,4.8,2.2c0.3,0.1,0.4,0.9,0.3,1.2c-0.2,0.3-0.8,0.7-1.1,0.6
		c-1.5-0.5-3.1-1.2-4.5-1.9c-0.3-0.1-0.5-0.9-0.4-1.2C17.8,24.6,18.3,24.3,18.6,24.1z"/>
	<path class="st0" d="M73.2,28.2c-0.3-0.2-0.9-0.4-0.9-0.7c0-0.5,0.1-1.2,0.4-1.4c1.4-0.7,2.9-1.3,4.3-1.8c0.3-0.1,1,0.3,1.3,0.6
		c0.2,0.2-0.1,1.1-0.3,1.2C76.5,26.9,74.9,27.5,73.2,28.2z"/>
	<path class="st0" d="M52.5,40.5c0.3,0.3,0.8,0.4,0.8,0.7c0,0.5,0,1.1-0.3,1.5c-0.9,1.1-2.1,1.9-2.9,3c-0.5,0.7-1,1.6-1.1,2.5
		c-0.2,1.5,0,3-0.1,4.6c0,0.5-0.7,1-1,1.4c-0.4-0.5-1.1-0.9-1.1-1.4c-0.1-2.1-0.1-4.1,0-6.2c0-0.4,0.3-0.9,0.6-1.3
		c1.2-1.3,2.5-2.7,3.8-3.9C51.6,41,52.1,40.8,52.5,40.5z"/>
	<path class="st0" d="M48.2,23.2c-2.4,0.8-4.7,1.6-7.2,2.3c-0.6,0.2-1.4,0-2.1,0c0.3-0.6,0.5-1.5,1-1.8c3.2-2.2,6.8-2.5,10.5-2.1
		c0.5,0.1,0.9,0.8,1.3,1.2c-0.5,0.3-0.9,0.8-1.5,0.9c-0.6,0.2-1.2,0-1.8,0C48.3,23.5,48.3,23.3,48.2,23.2z"/>
	<path class="st0" d="M59.5,27.2c-0.6,0.2-1.4,0.6-1.8,0.4c-1-0.6-2-1.4-2.8-2.2c-0.3-0.3-0.3-1.1-0.1-1.4s1.1-0.4,1.4-0.2
		c1.2,0.8,2.4,1.8,3.5,2.7C59.6,26.6,59.6,26.9,59.5,27.2z"/>
	<path class="st0" d="M45.4,45.3c-1-1.2-2.2-2.3-2.8-3.7c-0.4-0.9,0.8-1.3,1.6-0.7c0.9,0.7,1.8,1.6,2.4,2.5c0.2,0.4-0.2,1.2-0.3,1.8
		C45.9,45.2,45.6,45.2,45.4,45.3z"/>
</g>
</svg>
