<?xml version="1.0" encoding="utf-8"?>
<!-- Generator: Adobe Illustrator 24.0.3, SVG Export Plug-In . SVG Version: 6.00 Build 0)  -->
<svg version="1.1" id="Layer_1" xmlns="http://www.w3.org/2000/svg" xmlns:xlink="http://www.w3.org/1999/xlink" x="0px" y="0px"
	 viewBox="0 0 96 96" style="enable-background:new 0 0 96 96;" xml:space="preserve">
<style type="text/css">
	.st0{fill:#163F6C;}
</style>
<g>
	<path class="st0" d="M63.62,65.38c-2.39,2.15-4.73,4.26-7.08,6.37c-1.67,1.49-2.29,1.49-3.94,0.02c-1.51-1.35-3.01-2.7-4.59-4.12
		c-1.6,1.44-3.12,2.82-4.66,4.19c-1.52,1.36-2.38,1.36-3.89,0c-0.85-0.76-1.71-1.5-2.53-2.28c-0.99-0.94-1.08-2.04-0.28-2.9
		c0.75-0.81,1.85-0.83,2.83-0.02c0.62,0.51,1.21,1.06,1.86,1.64c1.62-1.45,3.19-2.86,4.76-4.26c1.34-1.2,2.36-1.2,3.72,0.02
		c1.54,1.38,3.07,2.77,4.73,4.26c2.03-1.83,4.03-3.64,6.16-5.55c-4.23-3.82-8.4-7.59-12.63-11.41c-0.26,0.2-0.53,0.37-0.76,0.58
		C35.09,62.9,22.88,73.89,10.66,84.88c-0.27,0.24-0.53,0.51-0.84,0.7c-0.91,0.55-1.81,0.49-2.52-0.33
		c-0.71-0.81-0.65-1.71,0.01-2.55c0.2-0.25,0.46-0.45,0.7-0.67c12.64-11.37,25.27-22.75,37.91-34.12c1.76-1.59,2.4-1.59,4.12-0.04
		C62.62,59.19,75.2,70.51,87.77,81.83c0.36,0.32,0.76,0.63,1.03,1.02c0.57,0.83,0.55,1.69-0.14,2.45c-0.7,0.77-1.55,0.83-2.42,0.31
		c-0.34-0.2-0.64-0.5-0.94-0.77C78.4,78.63,71.49,72.41,64.59,66.2C64.29,65.93,63.98,65.68,63.62,65.38z"/>
	<path class="st0" d="M68.78,23.41c-2.46-2.81-2.51-6.69-0.1-9.56c0.66-0.79,1.2-1.55,0.74-2.62c-0.5-1.14-1.52-1.18-2.57-1.18
		c-6.04,0-12.08-0.01-18.13,0c-2.11,0.01-2.67,0.58-2.67,2.67c-0.01,8.48,0,16.95,0,25.43c0,0.33-0.03,0.66,0.03,0.97
		c0.19,1.06,0.86,1.67,1.92,1.67s1.75-0.61,1.93-1.67c0.07-0.44,0.03-0.89,0.03-1.34V27.06h1.52c5.2,0,10.39,0,15.58,0.01
		c1.03,0,1.94-0.18,2.4-1.27C69.87,24.81,69.4,24.11,68.78,23.41z M63.89,23.01H50.02v-8.95h13.87
		C62.75,17.04,62.7,19.97,63.89,23.01z"/>
</g>
</svg>
