<?xml version="1.0" encoding="utf-8"?>
<!-- Generator: Adobe Illustrator 22.0.1, SVG Export Plug-In . SVG Version: 6.00 Build 0)  -->
<svg version="1.1" id="Layer_1" xmlns="http://www.w3.org/2000/svg" xmlns:xlink="http://www.w3.org/1999/xlink" x="0px" y="0px"
	 viewBox="0 0 96 96" style="enable-background:new 0 0 96 96;" xml:space="preserve">
<style type="text/css">
	.st0{fill:#FFFFFF;}
</style>
<g>
	<path class="st0" d="M11,48.6c0.2-11.8,4.6-21.1,13-28.5c0.5-0.4,1-0.8,1.5-1.1c2.3-1.3,4.5-0.9,5.9,1.1c1.3,1.9,0.9,4.1-0.8,5.9
		c-2.1,2.1-4.3,4.1-6,6.5c-11.9,17.3-1.2,41.2,19.6,43.9c17.7,2.3,33-11.7,32.1-29.6c-0.4-8.1-3.9-14.9-10-20.3
		c-0.9-0.8-1.8-2-2.1-3.1c-0.5-1.8,0.2-3.4,1.8-4.5c1.7-1.1,3.5-0.8,5,0.3c3.5,2.6,6.3,5.8,8.5,9.5c13.6,22.1,1,50.7-24.5,55.8
		c-20.6,4.1-40.6-10-43.6-30.8C11.2,51.9,11.1,50,11,48.6z"/>
	<path class="st0" d="M42.3,30.8c0-4.9,0-9.8,0-14.7c0-2.4,1.4-4,3.6-5c2.1-0.9,4.1-0.5,5.7,1c0.9,0.8,1.4,2.1,1.9,3.2
		c0.3,0.6,0.2,1.5,0.2,2.2c0,8.9,0,17.9,0,26.8c0,1.9-0.3,3.7-1.8,5.1c-1.7,1.6-3.7,2.1-5.8,1.4c-2.2-0.8-3.8-2.3-3.8-4.8
		C42.3,41,42.3,35.9,42.3,30.8C42.3,30.8,42.3,30.8,42.3,30.8z"/>
</g>
</svg>
