<?xml version="1.0" encoding="utf-8"?>
<!-- Generator: Adobe Illustrator 22.0.1, SVG Export Plug-In . SVG Version: 6.00 Build 0)  -->
<svg version="1.1" id="Layer_1" xmlns="http://www.w3.org/2000/svg" xmlns:xlink="http://www.w3.org/1999/xlink" x="0px" y="0px"
	 viewBox="0 0 96 96" style="enable-background:new 0 0 96 96;" xml:space="preserve">
<style type="text/css">
	.st0{fill:#408F42;}
</style>
<path class="st0" d="M63,81.2c-11.5,9.4-28.9,7.2-37.9-4.3c-1-1.3-1.9-2.6-2.8-4c-1.4-2.4-2.5-4.8-5.1-6.5c-2.6-1.6-3.7-4.6-3.8-7.5
	C13.3,51.6,13,44.2,13.8,37C15.3,23.3,27,11.9,40.7,9.6c4.6-0.8,9.3-1,13.7,0.6c2.3,0.9,4.2,2.6,6.3,3.9c0.6,0.4,1.2,0.8,1.9,0.9
	c5,0.6,8.5,3.4,11.2,7.4c4,5.9,5.4,12.7,5.6,19.7c0.1,1.4,0.1,2.8,0,4.2c-0.1,1.5,0.3,2.7,1.4,3.9c2.6,2.7,2,9.1-0.8,11.6
	c-0.5,0.4-0.8,1-1,1.6c-2.2,7.4-7.2,11.4-15,11.6c-6.2,0.2-12.4,0.1-18.6,0c-3.4,0-5.2-1.8-5.2-4.6c0.1-2.7,2.1-4.4,5.3-4.5
	c2.5-0.1,4.8,0.1,6.2,2.6c0.2,0.4,1,0.5,1.6,0.5c3.7,0,7.5,0.1,11.2,0c3.8-0.1,6.8-2.3,7.9-5.8c-0.6-0.1-1.3-0.3-2.1-0.4
	c0.2-10.6,0.2-21.2-5.4-30.8c-1-1.7-2.2-3.3-3.6-5.2C57.6,35.7,50.2,38.5,41.9,40c-3.5,0.6-7,1.3-10.5,2.1
	c-5.6,1.4-8.8,5.1-9.1,10.9c0,0.3-0.1,0.6-0.2,0.9c-0.9,0.1-1.8,0.2-2.6,0.3c-0.9,5.1,0,6.7,4.5,9.2c0.6,0.3,1,1.2,1.3,1.9
	c3,7.1,7.5,12.7,15.2,14.9c2.2,0.6,4.5,0.8,6.8,0.9C52.4,81.3,57.5,81.2,63,81.2z"/>
</svg>
