<?xml version="1.0" encoding="utf-8"?>
<!-- Generator: Adobe Illustrator 22.0.1, SVG Export Plug-In . SVG Version: 6.00 Build 0)  -->
<svg version="1.1" id="Layer_1" xmlns="http://www.w3.org/2000/svg" xmlns:xlink="http://www.w3.org/1999/xlink" x="0px" y="0px"
	 viewBox="0 0 96 96" style="enable-background:new 0 0 96 96;" xml:space="preserve">
<style type="text/css">
	.st0{fill:#408F42;}
</style>
<g>
	<path class="st0" d="M48.1,74c-11.2,0-22.4,0-33.6,0c-3.6,0-4.7-0.8-4.3-4.4c0.5-3.9,1.5-7.7,2.5-11.5c1.9-7.3,3.9-14.6,5.9-21.8
		c0.7-2.5,1.6-3.1,4.1-3.1c16.9,0,33.8,0,50.7,0c2.4,0,3.3,0.7,3.9,3.1c2.8,10.3,5.6,20.7,8.3,31c0.4,1.3,0.3,2.9,0,4.3
		c-0.3,1.9-1.9,2.4-3.7,2.4c-8.4,0-16.8,0-25.1,0C53.9,74,51,74,48.1,74z M79.4,65.2c-2.5-8.8-4.8-17.4-7.2-26
		c-16.1,0-32.1,0-48.1,0c-2.4,8.7-4.8,17.2-7.2,26C37.9,65.2,58.5,65.2,79.4,65.2z"/>
	<path class="st0" d="M62.5,85.6c-9.7,0-19.3,0-29.1,0c0-1.1-0.1-2.1,0-3c0.2-1.8,1.3-2.7,3.2-2.7c1.7,0,3.5,0,5.3,0
		c0.1-0.9,0.2-1.8,0.3-2.7c3.8,0,7.5,0,11.3,0c0.1,0.9,0.2,1.7,0.3,2.7c1.4,0,2.8,0,4.2,0c3.7,0,4.5,0.8,4.5,4.5
		C62.6,84.6,62.5,85,62.5,85.6z"/>
	<path class="st0" d="M36,15.5c1.9,0.6,3.7,1.2,5.5,1.7c1.7,0.5,3.1,0.1,3.9-1.6c0.9-1.7,1.7-3.4,2.6-5.2c1,1.8,2,3.5,2.9,5.2
		c1,1.7,2.5,2.2,4.3,1.6c1.5-0.5,2.9-1.1,4.5-1.7c-0.5,1.8-0.9,3.5-1.4,5.3c-0.5,2.1,0.3,3.5,2.1,4.5c1.4,0.7,2.9,1.4,4.6,2.2
		c-2.9,0.8-5,3.5-8.5,2.6c0.9-3.6,0.1-6.8-2.6-9.4c-2-1.9-4.5-2.6-7.3-2.3c-5.2,0.5-8.4,5.4-7.5,11.5c-2,0.6-2,0.6-8.3-2.6
		c1.5-0.7,2.9-1.3,4.3-2c2.8-1.4,3.1-2.3,2.3-5.3C37.1,18.6,36.6,17.2,36,15.5z"/>
	<path class="st0" d="M42.4,53.6c3.6,0,6.9,0,10.3,0c0.4,0,1.1,0.6,1.1,0.9c0.1,2.5,0,5.1,0,7.7c-3.9,0-7.8,0-11.9,0
		C42.1,59.5,42.2,56.7,42.4,53.6z"/>
	<path class="st0" d="M36.6,53.7c-0.4,2.8-0.6,5.2-1,7.7c-0.1,0.4-0.7,1-1.2,1c-3.6,0.1-7.2,0-11.1,0c0.6-2.8,1.2-5.4,1.9-8
		c0.1-0.3,0.6-0.7,0.9-0.7C29.4,53.6,32.9,53.7,36.6,53.7z"/>
	<path class="st0" d="M59.4,53.7c3.7,0,7.1,0,10.6,0c0.3,0,0.8,0.4,0.8,0.8c0.6,2.6,1.2,5.2,1.9,7.9c-3.9,0-7.6,0-11.2,0
		c-0.4,0-1-0.4-1-0.7C60,59.1,59.8,56.5,59.4,53.7z"/>
	<path class="st0" d="M69.5,49.2c-3.7,0-7.2,0-10.8,0c-0.2-2.3-0.5-4.6-0.7-7.2c3.1,0,6.1,0,9.1,0c0.3,0,0.8,0.4,0.9,0.7
		C68.5,44.9,69,47,69.5,49.2z"/>
	<path class="st0" d="M53.5,49.1c-3.6,0-7,0-10.8,0c0.2-2.4,0.3-4.6,0.5-6.9c3.2,0,6.4,0,9.7,0C53.1,44.5,53.3,46.8,53.5,49.1z"/>
	<path class="st0" d="M38,42c-0.2,2.2-0.3,4-0.6,5.9c-0.1,0.4-0.7,1-1.1,1c-3.2,0.1-6.3,0-9.8,0c0.6-2.2,1-4.3,1.6-6.3
		c0.1-0.3,0.6-0.7,0.9-0.7C31.9,42,34.8,42,38,42z"/>
</g>
</svg>
